<svg width="50" height="50" fill="none" xmlns="http://www.w3.org/2000/svg"><g filter="url(#a)"><rect x="10" y="6" width="30" height="30" rx="15" fill="#fff"/></g><path d="M19.938 27.188c0 .93.757 1.687 1.687 1.687a1.69 1.69 0 0 0 1.688-1.688 1.69 1.69 0 0 0-1.688-1.687 1.69 1.69 0 0 0-1.688 1.688zm2.25 0a.563.563 0 0 1-1.125 0 .563.563 0 0 1 1.125 0zM30.063 27.188a1.69 1.69 0 0 0-1.688-1.688 1.69 1.69 0 0 0-1.688 1.688c0 .93.758 1.687 1.688 1.687a1.69 1.69 0 0 0 1.688-1.688zm-2.25 0a.563.563 0 0 1 1.125 0 .563.563 0 0 1-1.125 0zM18.306 13.688l.966 9.176c.09.861.812 1.511 1.679 1.511h8.765c.79 0 1.484-.561 1.65-1.334l1.352-6.305a1.119 1.119 0 0 0-.226-.943 1.121 1.121 0 0 0-.875-.418H19.615l-.243-2.309a.563.563 0 0 0-.56-.504h-1.687a.563.563 0 0 0 0 1.126h1.181zm13.31 2.812-1.35 6.305a.567.567 0 0 1-.55.445H20.95a.561.561 0 0 1-.56-.503l-.658-6.247h11.884z" fill="#505050"/><defs><filter id="a" x="0" y="0" width="50" height="50" filterUnits="userSpaceOnUse" color-interpolation-filters="sRGB"><feFlood flood-opacity="0" result="BackgroundImageFix"/><feColorMatrix in="SourceAlpha" values="0 0 0 0 0 0 0 0 0 0 0 0 0 0 0 0 0 0 127 0" result="hardAlpha"/><feOffset dy="4"/><feGaussianBlur stdDeviation="5"/><feComposite in2="hardAlpha" operator="out"/><feColorMatrix values="0 0 0 0 0 0 0 0 0 0 0 0 0 0 0 0 0 0 0.1 0"/><feBlend in2="BackgroundImageFix" result="effect1_dropShadow_1_451"/><feBlend in="SourceGraphic" in2="effect1_dropShadow_1_451" result="shape"/></filter></defs></svg>