<svg width="88" height="25" fill="none" xmlns="http://www.w3.org/2000/svg"><path d="M.295 24V.727h4.216v19.739h10.25V24H.295zM38.31 12.364c0 2.507-.47 4.655-1.41 6.443-.931 1.78-2.204 3.144-3.818 4.09-1.606.948-3.428 1.421-5.466 1.421-2.037 0-3.863-.473-5.477-1.42-1.606-.955-2.879-2.322-3.818-4.102-.932-1.788-1.398-3.932-1.398-6.432 0-2.508.466-4.652 1.398-6.432.94-1.788 2.212-3.155 3.818-4.102C23.753.883 25.58.41 27.616.41c2.038 0 3.86.473 5.466 1.42 1.614.947 2.887 2.314 3.819 4.102.939 1.78 1.409 3.924 1.409 6.432zm-4.239 0c0-1.766-.276-3.254-.83-4.466-.545-1.22-1.303-2.14-2.272-2.762-.97-.628-2.087-.943-3.353-.943-1.265 0-2.382.315-3.352.943-.97.622-1.73 1.542-2.284 2.762-.545 1.212-.818 2.7-.818 4.466 0 1.765.273 3.257.818 4.477.553 1.212 1.314 2.133 2.284 2.761.97.622 2.087.932 3.352.932 1.266 0 2.383-.31 3.353-.932.97-.628 1.727-1.549 2.273-2.761.553-1.22.829-2.712.829-4.477zm23.815-4.205a6.022 6.022 0 0 0-.784-1.648 5.07 5.07 0 0 0-1.181-1.261 4.765 4.765 0 0 0-1.569-.784 6.542 6.542 0 0 0-1.931-.273c-1.25 0-2.364.315-3.341.943-.978.63-1.747 1.553-2.307 2.773-.553 1.212-.83 2.69-.83 4.432 0 1.758.277 3.246.83 4.466.553 1.22 1.322 2.148 2.306 2.784.985.629 2.13.943 3.432.943 1.182 0 2.205-.227 3.069-.682a4.806 4.806 0 0 0 2.01-1.931c.47-.841.705-1.826.705-2.955l.955.148h-6.318v-3.296h9.443v2.796c0 1.992-.424 3.715-1.273 5.17a8.696 8.696 0 0 1-3.5 3.364c-1.485.78-3.19 1.17-5.113 1.17-2.144 0-4.027-.48-5.648-1.443-1.614-.97-2.875-2.345-3.784-4.125-.902-1.788-1.352-3.91-1.352-6.364 0-1.878.265-3.556.795-5.034.538-1.477 1.288-2.73 2.25-3.761a9.574 9.574 0 0 1 3.386-2.364C49.432.682 50.841.41 52.364.41c1.288 0 2.488.19 3.602.568a9.546 9.546 0 0 1 2.966 1.591 8.866 8.866 0 0 1 2.148 2.455c.56.947.928 1.992 1.102 3.136h-4.296zm29.361 4.205c0 2.507-.47 4.655-1.409 6.443-.932 1.78-2.204 3.144-3.818 4.09-1.606.948-3.428 1.421-5.466 1.421-2.038 0-3.864-.473-5.477-1.42-1.606-.955-2.88-2.322-3.819-4.102-.931-1.788-1.397-3.932-1.397-6.432 0-2.508.466-4.652 1.397-6.432.94-1.788 2.213-3.155 3.819-4.102C72.69.883 74.517.41 76.554.41c2.038 0 3.86.473 5.466 1.42 1.614.947 2.886 2.314 3.818 4.102.94 1.78 1.41 3.924 1.41 6.432zm-4.239 0c0-1.766-.276-3.254-.829-4.466-.546-1.22-1.303-2.14-2.273-2.762-.97-.628-2.087-.943-3.352-.943-1.265 0-2.383.315-3.352.943-.97.622-1.731 1.542-2.284 2.762-.546 1.212-.819 2.7-.819 4.466 0 1.765.273 3.257.819 4.477.553 1.212 1.314 2.133 2.284 2.761.97.622 2.087.932 3.352.932 1.265 0 2.383-.31 3.352-.932.97-.628 1.727-1.549 2.273-2.761.553-1.22.83-2.712.83-4.477z" fill="#000"/></svg>