<svg width="70" height="70" fill="none" xmlns="http://www.w3.org/2000/svg"><path opacity=".15" d="M60 0H10C4.477 0 0 4.477 0 10v50c0 5.523 4.477 10 10 10h50c5.523 0 10-4.477 10-10V10c0-5.523-4.477-10-10-10z" fill="#53B175"/><path d="M45.42 28.875H26.063a.813.813 0 0 1 0-1.625h19.5a.813.813 0 0 0 .813-.812 2.436 2.436 0 0 0-2.437-2.437H25.25A3.25 3.25 0 0 0 22 27.25V43.5a3.25 3.25 0 0 0 3.25 3.25h20.17A2.514 2.514 0 0 0 48 44.313v-13a2.514 2.514 0 0 0-2.58-2.438zm-2.3 10.563a1.625 1.625 0 1 1 .005 0h-.005z" fill="#53B175"/></svg>