<svg width="70" height="70" fill="none" xmlns="http://www.w3.org/2000/svg"><path opacity=".15" d="M60 0H10C4.477 0 0 4.477 0 10v50c0 5.523 4.477 10 10 10h50c5.523 0 10-4.477 10-10V10c0-5.523-4.477-10-10-10z" fill="#53B175"/><path d="M30.548 30.55a3.25 3.25 0 1 0-4.601-4.593 3.25 3.25 0 0 0 4.601 4.593zm13 8.4a3.25 3.25 0 1 0-4.592 4.6 3.25 3.25 0 0 0 4.592-4.6zm-.1-11.752L42.3 26.05a1.624 1.624 0 0 0-2.3 0L26.051 40.003a1.623 1.623 0 0 0 0 2.3L27.2 43.45a1.624 1.624 0 0 0 2.3 0l13.949-13.953a1.624 1.624 0 0 0 0-2.3l-.001.001z" fill="#53B175"/></svg>