<svg width="162" height="48" fill="none" xmlns="http://www.w3.org/2000/svg"><g clip-path="url(#a)"><path d="M149.099 0H12.908c-.496 0-.987 0-1.482.002-.415.003-.826.01-1.244.016-.91.01-1.816.08-2.713.212a9.85 9.85 0 0 0-2.573.752 8.753 8.753 0 0 0-2.192 1.415A7.622 7.622 0 0 0 1.11 4.342a7.311 7.311 0 0 0-.846 2.284 13.87 13.87 0 0 0-.242 2.402c-.013.368-.014.737-.021 1.105V37.87c.007.373.008.734.02 1.107.011.805.092 1.608.243 2.402.149.795.434 1.566.846 2.285.41.718.95 1.372 1.595 1.937a8.53 8.53 0 0 0 2.192 1.415 9.9 9.9 0 0 0 2.573.757c.897.13 1.804.201 2.713.212.418.008.83.013 1.244.013.495.002.986.002 1.482.002h136.191c.487 0 .981 0 1.468-.002.412 0 .835-.005 1.248-.013.907-.01 1.812-.081 2.707-.212.899-.138 1.77-.393 2.584-.757a8.541 8.541 0 0 0 2.189-1.415 7.783 7.783 0 0 0 1.6-1.937c.409-.72.691-1.49.838-2.285.151-.794.235-1.597.251-2.402.005-.373.005-.734.005-1.107.011-.436.011-.87.011-1.312V11.443c0-.44 0-.875-.011-1.31 0-.368 0-.737-.005-1.105-.016-.805-.1-1.608-.251-2.402a7.331 7.331 0 0 0-.838-2.284c-.836-1.444-2.161-2.619-3.789-3.36a10.002 10.002 0 0 0-2.584-.752c-.895-.133-1.8-.204-2.707-.212-.413-.006-.836-.013-1.248-.016C150.08 0 149.586 0 149.099 0z" fill="#A6A6A6"/><path d="M11.316 46.954c-.413 0-.816-.005-1.226-.013-.85-.01-1.697-.075-2.535-.196a8.718 8.718 0 0 1-2.247-.658 7.363 7.363 0 0 1-1.894-1.22 6.49 6.49 0 0 1-1.384-1.676 6.332 6.332 0 0 1-.737-1.989 13.235 13.235 0 0 1-.226-2.25c-.008-.253-.02-1.096-.02-1.096V10.129s.013-.83.02-1.073c.01-.753.086-1.505.225-2.247.13-.695.378-1.368.737-1.995a6.547 6.547 0 0 1 1.377-1.678 7.58 7.58 0 0 1 1.901-1.228 8.632 8.632 0 0 1 2.243-.652 19.231 19.231 0 0 1 2.543-.197l1.224-.015h139.367l1.238.015a18.91 18.91 0 0 1 2.52.195c.788.119 1.552.34 2.266.658 1.408.642 2.553 1.658 3.275 2.905.354.623.598 1.29.726 1.979.141.749.22 1.506.236 2.265.004.34.004.705.004 1.068.011.45.011.879.011 1.31v25.12c0 .436 0 .862-.011 1.29 0 .391 0 .749-.005 1.117a13.65 13.65 0 0 1-.232 2.224 6.374 6.374 0 0 1-.732 2.005 6.705 6.705 0 0 1-1.378 1.663 7.373 7.373 0 0 1-1.898 1.227 8.678 8.678 0 0 1-2.262.66c-.838.121-1.685.187-2.534.196-.398.008-.814.013-1.217.013l-1.47.002-137.905-.002z" fill="#000"/><path d="M39.357 24.36a5.939 5.939 0 0 1 2.828-4.982 6.078 6.078 0 0 0-4.79-2.589c-2.015-.211-3.968 1.206-4.995 1.206-1.047 0-2.628-1.185-4.33-1.15a6.378 6.378 0 0 0-5.368 3.274c-2.32 4.018-.59 9.923 1.633 13.171 1.113 1.59 2.413 3.367 4.114 3.304 1.664-.07 2.286-1.061 4.295-1.061 1.99 0 2.574 1.06 4.31 1.02 1.785-.028 2.91-1.597 3.984-3.202a13.151 13.151 0 0 0 1.822-3.711 5.74 5.74 0 0 1-3.503-5.28zM36.079 14.653a5.847 5.847 0 0 0 1.337-4.189 5.949 5.949 0 0 0-3.849 1.992 5.563 5.563 0 0 0-1.372 4.034 4.92 4.92 0 0 0 3.884-1.837zM60.397 32.568h-5.68l-1.364 4.027h-2.406l5.38-14.901h2.5l5.38 14.901H61.76l-1.363-4.027zm-5.092-1.86h4.502l-2.22-6.536h-.061l-2.221 6.537zM75.826 31.164c0 3.376-1.807 5.545-4.534 5.545a3.683 3.683 0 0 1-3.419-1.9h-.051v5.38h-2.23V25.731h2.158v1.807h.041a3.854 3.854 0 0 1 3.46-1.92c2.757 0 4.575 2.179 4.575 5.546zm-2.292 0c0-2.2-1.137-3.646-2.872-3.646-1.704 0-2.85 1.476-2.85 3.646 0 2.189 1.147 3.655 2.85 3.655 1.735 0 2.871-1.436 2.871-3.655zM87.784 31.164c0 3.376-1.808 5.545-4.535 5.545a3.684 3.684 0 0 1-3.418-1.9h-.052v5.38h-2.23V25.731h2.159v1.807h.041a3.855 3.855 0 0 1 3.46-1.92c2.757 0 4.575 2.179 4.575 5.546zm-2.293 0c0-2.2-1.136-3.646-2.87-3.646-1.705 0-2.85 1.476-2.85 3.646 0 2.189 1.145 3.655 2.85 3.655 1.734 0 2.87-1.436 2.87-3.655zM95.687 32.443c.165 1.478 1.6 2.448 3.562 2.448 1.88 0 3.232-.97 3.232-2.302 0-1.157-.815-1.85-2.747-2.324l-1.93-.466c-2.737-.66-4.008-1.94-4.008-4.017 0-2.57 2.241-4.337 5.423-4.337 3.148 0 5.307 1.766 5.38 4.337h-2.251c-.135-1.487-1.364-2.384-3.161-2.384-1.796 0-3.026.908-3.026 2.23 0 1.053.785 1.673 2.706 2.148l1.642.403c3.057.723 4.328 1.951 4.328 4.13 0 2.788-2.221 4.535-5.753 4.535-3.305 0-5.536-1.706-5.68-4.4h2.283zM109.65 23.16v2.57h2.066v1.767h-2.066v5.99c0 .93.413 1.363 1.321 1.363a6.96 6.96 0 0 0 .734-.051v1.755c-.408.076-.823.111-1.239.103-2.199 0-3.057-.826-3.057-2.933v-6.227h-1.58V25.73h1.58V23.16h2.241zM112.912 31.164c0-3.419 2.013-5.567 5.153-5.567 3.15 0 5.154 2.148 5.154 5.567 0 3.427-1.994 5.566-5.154 5.566s-5.153-2.139-5.153-5.566zm8.034 0c0-2.345-1.074-3.73-2.881-3.73-1.807 0-2.881 1.395-2.881 3.73 0 2.354 1.074 3.727 2.881 3.727 1.807 0 2.881-1.373 2.881-3.727zM125.057 25.73h2.127v1.85h.052a2.591 2.591 0 0 1 2.613-1.963c.257 0 .513.027.764.083v2.086a3.115 3.115 0 0 0-1.002-.135 2.243 2.243 0 0 0-2.225 1.544 2.248 2.248 0 0 0-.099.956v6.444h-2.23V25.731zM140.895 33.404c-.3 1.972-2.22 3.326-4.678 3.326-3.16 0-5.122-2.118-5.122-5.515 0-3.408 1.972-5.618 5.028-5.618 3.006 0 4.896 2.065 4.896 5.36v.763h-7.673v.135a2.84 2.84 0 0 0 .767 2.198 2.822 2.822 0 0 0 2.156.88 2.458 2.458 0 0 0 2.509-1.529h2.117zm-7.538-3.242h5.431a2.606 2.606 0 0 0-.73-1.961 2.607 2.607 0 0 0-1.935-.797 2.749 2.749 0 0 0-2.766 2.758zM55.026 10.477a3.169 3.169 0 0 1 3.369 3.558c0 2.288-1.237 3.602-3.37 3.602H52.44v-7.16h2.587zm-1.475 6.148h1.35a2.251 2.251 0 0 0 2.362-2.575 2.257 2.257 0 0 0-2.362-2.56h-1.35v5.135zM59.651 14.933a2.56 2.56 0 1 1 5.096 0 2.56 2.56 0 1 1-5.096 0zm4 0c0-1.171-.527-1.856-1.45-1.856-.927 0-1.448.685-1.448 1.856 0 1.18.521 1.86 1.448 1.86.923 0 1.45-.684 1.45-1.86zM71.522 17.637h-1.106l-1.117-3.98h-.084l-1.112 3.98h-1.096l-1.49-5.403H66.6l.968 4.123h.08l1.11-4.123h1.024l1.11 4.123h.085l.963-4.123h1.067l-1.484 5.403zM74.258 12.234h1.027v.858h.08a1.617 1.617 0 0 1 1.612-.963 1.756 1.756 0 0 1 1.87 2.01v3.498h-1.066v-3.23c0-.868-.377-1.3-1.166-1.3a1.24 1.24 0 0 0-1.29 1.37v3.16h-1.067v-5.403zM80.547 10.124h1.066v7.513h-1.066v-7.513zM83.095 14.933a2.561 2.561 0 0 1 4.443-1.966 2.559 2.559 0 0 1 .654 1.966 2.56 2.56 0 1 1-5.097 0zm4 0c0-1.171-.526-1.856-1.45-1.856-.927 0-1.448.685-1.448 1.856 0 1.18.522 1.86 1.448 1.86.924 0 1.45-.684 1.45-1.86zM89.315 16.11c0-.973.724-1.534 2.01-1.614l1.464-.084v-.467c0-.57-.378-.893-1.107-.893-.595 0-1.007.219-1.126.601h-1.032c.109-.928.982-1.524 2.208-1.524 1.354 0 2.118.675 2.118 1.816v3.692h-1.026v-.759h-.085a1.819 1.819 0 0 1-1.623.848 1.635 1.635 0 0 1-1.8-1.617zm3.474-.462v-.452l-1.32.084c-.744.05-1.082.303-1.082.78 0 .486.422.769 1.002.769a1.274 1.274 0 0 0 1.4-1.181zM95.252 14.933c0-1.707.878-2.789 2.243-2.789a1.782 1.782 0 0 1 1.657.948h.08v-2.968h1.066v7.513h-1.022v-.853h-.084a1.875 1.875 0 0 1-1.697.942c-1.375 0-2.243-1.081-2.243-2.793zm1.102 0c0 1.146.54 1.836 1.443 1.836.9 0 1.455-.7 1.455-1.831 0-1.126-.562-1.836-1.455-1.836-.897 0-1.444.694-1.444 1.831zM104.71 14.933a2.57 2.57 0 0 1 .654-1.965 2.555 2.555 0 0 1 1.894-.838 2.56 2.56 0 0 1 2.549 2.803 2.572 2.572 0 0 1-1.512 2.59 2.56 2.56 0 0 1-3.585-2.59zm4 0c0-1.171-.527-1.856-1.45-1.856-.927 0-1.448.685-1.448 1.856 0 1.18.521 1.86 1.448 1.86.923 0 1.45-.684 1.45-1.86zM111.237 12.234h1.027v.858h.08a1.617 1.617 0 0 1 1.612-.963 1.76 1.76 0 0 1 1.87 2.01v3.498h-1.066v-3.23c0-.868-.377-1.3-1.166-1.3a1.238 1.238 0 0 0-1.29 1.37v3.16h-1.067v-5.403zM121.852 10.888v1.37h1.171v.899h-1.171v2.778c0 .566.233.814.764.814.136 0 .272-.009.407-.025v.889a3.503 3.503 0 0 1-.58.054c-1.186 0-1.658-.417-1.658-1.459v-3.051h-.858v-.899h.858v-1.37h1.067zM124.48 10.124h1.057v2.978h.084a1.663 1.663 0 0 1 1.648-.968 1.776 1.776 0 0 1 1.404.57 1.778 1.778 0 0 1 .457 1.445v3.488h-1.068v-3.225c0-.863-.402-1.3-1.155-1.3a1.267 1.267 0 0 0-.999.368 1.264 1.264 0 0 0-.362 1.001v3.156h-1.066v-7.513zM135.348 16.178a2.194 2.194 0 0 1-2.342 1.564 2.456 2.456 0 0 1-2.496-2.79 2.496 2.496 0 0 1 2.492-2.822c1.503 0 2.41 1.027 2.41 2.723v.373h-3.816v.06a1.44 1.44 0 0 0 .378 1.092 1.429 1.429 0 0 0 1.061.455 1.296 1.296 0 0 0 1.286-.655h1.027zm-3.752-1.741h2.73a1.315 1.315 0 0 0-.355-.994 1.31 1.31 0 0 0-.975-.406 1.383 1.383 0 0 0-1.4 1.4z" fill="#fff"/></g><defs><clipPath id="a"><path fill="#fff" d="M0 0h162v48H0z"/></clipPath></defs></svg>