<svg width="32" height="33" fill="none" xmlns="http://www.w3.org/2000/svg"><path opacity=".1" fill-rule="evenodd" clip-rule="evenodd" d="M0 16.5C0 7.663 7.163.5 16 .5s16 7.163 16 16-7.163 16-16 16-16-7.163-16-16z" fill="#fff"/><path d="M21.808 10.74 8.512 16.02c-.432.144-.384.768.048.912l3.36 1.056 1.344 4.224c.096.336.528.432.768.192L16 20.58l3.744 2.736a.505.505 0 0 0 .768-.288l2.592-11.136c.144-.816-.576-1.44-1.296-1.152zm-7.776 8.064L13.6 21.3l-.96-3.456L22 11.7l-7.968 7.104z" fill="#fff"/></svg>