<svg width="32" height="33" fill="none" xmlns="http://www.w3.org/2000/svg"><path opacity=".1" fill-rule="evenodd" clip-rule="evenodd" d="M0 16.5C0 7.663 7.163.5 16 .5s16 7.163 16 16-7.163 16-16 16-16-7.163-16-16z" fill="#fff"/><path fill-rule="evenodd" clip-rule="evenodd" d="M22.668 11a2.167 2.167 0 0 1 1.509 1.549c.356 1.366.356 4.218.356 4.218s0 2.85-.356 4.218a2.167 2.167 0 0 1-1.51 1.549C21.338 22.9 16 22.9 16 22.9s-5.337 0-6.668-.366a2.167 2.167 0 0 1-1.509-1.55c-.356-1.366-.356-4.217-.356-4.217s0-2.852.356-4.218a2.167 2.167 0 0 1 1.51-1.55c1.33-.366 6.667-.366 6.667-.366s5.337 0 6.668.367zM14.4 14.366V19.7l4.267-2.667-4.267-2.666z" fill="#fff"/></svg>