<svg width="533" height="614" fill="none" xmlns="http://www.w3.org/2000/svg"><path d="M509.259 479.775H10.22v.25H509.26v-.25zM459.255 495.851h-33.056v.25h33.056v-.25zM340.803 498.569h-8.673v.249h8.673v-.249zM425.201 486.579h-19.153v.25h19.153v-.25zM105.686 488.258H62.579v.249h43.107v-.249zM120.897 488.258h-6.318v.249h6.318v-.249zM234.937 492.474h-93.499v.25h93.499v-.25zM246.784 435.214H54.056a5.707 5.707 0 0 1-5.7-5.705V158.315a5.707 5.707 0 0 1 5.7-5.705h192.728c3.144 0 5.7 2.558 5.7 5.705v271.194c-.01 3.147-2.566 5.705-5.7 5.705zM54.056 152.86a5.46 5.46 0 0 0-5.45 5.455v271.194a5.46 5.46 0 0 0 5.45 5.455h192.728a5.46 5.46 0 0 0 5.45-5.455V158.315a5.46 5.46 0 0 0-5.45-5.455H54.056zM462.659 435.214H269.93a5.707 5.707 0 0 1-5.699-5.705V158.315a5.707 5.707 0 0 1 5.699-5.705h192.729a5.707 5.707 0 0 1 5.699 5.705v271.194a5.707 5.707 0 0 1-5.699 5.705zM269.94 152.86a5.46 5.46 0 0 0-5.45 5.455v271.194a5.46 5.46 0 0 0 5.45 5.455h192.728a5.46 5.46 0 0 0 5.45-5.455V158.315a5.46 5.46 0 0 0-5.45-5.455H269.94z" fill="#EBEBEB"/><path d="M454.784 214.776H212.97v233.337h241.814V214.776z" fill="#E0E0E0"/><path d="M454.784 219.022H216.852v225.024h237.932V219.022z" fill="#F5F5F5"/><path d="M218.609 389.543v-67.681h7.026v-8.942l15.8-7.393v-9.152h2.635v25.487h2.635v67.681h3.513v-35.159h7.905V335.93h2.635v53.613h6.148v-20.212h4.391v-5.275h9.652v-18.464h5.269v-12.3h6.149v-18.463h2.635v18.463h6.148v12.3h5.27v18.464h9.661v5.275h4.382v20.212h5.269v-25.487h9.662v-56.261h2.635v-6.145h21.069v6.145h4.392v40.434h17.566v4.397h6.148v2.637h-6.148v15.827h18.434v-52.745h3.513v-10.55h8.784V267.36h2.634v40.435h6.149v10.55h34.214v125.701H216.852v-54.503h1.757z" fill="#E6E6E6"/><path d="M436.499 321.103h-2.485v2.488h2.485v-2.488zM436.499 325.279h-2.485v2.488h2.485v-2.488zM436.499 341.975h-2.485v2.488h2.485v-2.488zM436.499 346.151h-2.485v2.488h2.485v-2.488zM436.499 350.328h-2.485v2.488h2.485v-2.488zM436.499 362.857h-2.485v2.488h2.485v-2.488zM436.499 367.033h-2.485v2.488h2.485v-2.488zM432.547 337.809h-2.486v2.487h2.486v-2.487zM432.547 341.975h-2.486v2.488h2.486v-2.488zM432.547 346.151h-2.486v2.488h2.486v-2.488zM432.547 350.328h-2.486v2.488h2.486v-2.488zM432.547 354.504h-2.486v2.488h2.486v-2.488zM432.547 362.857h-2.486v2.488h2.486v-2.488zM432.547 367.033h-2.486v2.488h2.486v-2.488zM428.594 321.103h-2.485v2.488h2.485v-2.488zM428.594 325.279h-2.485v2.488h2.485v-2.488zM428.594 329.456h-2.485v2.488h2.485v-2.488zM428.594 333.632h-2.485v2.488h2.485v-2.488zM428.594 337.809h-2.485v2.487h2.485v-2.487zM428.594 341.975h-2.485v2.488h2.485v-2.488zM428.594 346.151h-2.485v2.488h2.485v-2.488zM428.594 350.328h-2.485v2.488h2.485v-2.488zM428.594 354.504h-2.485v2.488h2.485v-2.488zM428.594 358.68h-2.485v2.488h2.485v-2.488zM428.594 367.033h-2.485v2.488h2.485v-2.488zM424.642 321.103h-2.485v2.488h2.485v-2.488zM424.642 325.279h-2.485v2.488h2.485v-2.488zM424.642 329.456h-2.485v2.488h2.485v-2.488zM424.642 333.632h-2.485v2.488h2.485v-2.488zM424.642 337.809h-2.485v2.487h2.485v-2.487zM424.642 341.975h-2.485v2.488h2.485v-2.488zM424.642 346.151h-2.485v2.488h2.485v-2.488zM424.642 383.729h-2.485v2.487h2.485v-2.487zM420.69 321.103h-2.486v2.488h2.486v-2.488zM420.69 325.279h-2.486v2.488h2.486v-2.488zM420.69 329.456h-2.486v2.488h2.486v-2.488zM420.69 333.632h-2.486v2.488h2.486v-2.488zM420.69 337.809h-2.486v2.487h2.486v-2.487zM420.69 341.975h-2.486v2.488h2.486v-2.488zM420.69 346.151h-2.486v2.488h2.486v-2.488zM420.69 350.328h-2.486v2.488h2.486v-2.488zM420.69 375.386h-2.486v2.488h2.486v-2.488zM420.69 379.562h-2.486v2.488h2.486v-2.488zM420.69 383.729h-2.486v2.487h2.486v-2.487zM420.69 387.905h-2.486v2.488h2.486v-2.488zM420.69 404.61h-2.486v2.488h2.486v-2.488zM416.747 321.103h-2.485v2.488h2.485v-2.488zM416.747 325.279h-2.485v2.488h2.485v-2.488zM416.747 329.456h-2.485v2.488h2.485v-2.488zM416.747 333.632h-2.485v2.488h2.485v-2.488zM416.747 337.809h-2.485v2.487h2.485v-2.487zM416.747 341.975h-2.485v2.488h2.485v-2.488zM416.747 346.151h-2.485v2.488h2.485v-2.488zM416.747 350.328h-2.485v2.488h2.485v-2.488zM416.747 354.504h-2.485v2.488h2.485v-2.488zM416.747 358.68h-2.485v2.488h2.485v-2.488zM416.747 371.209h-2.485v2.488h2.485v-2.488zM416.747 375.386h-2.485v2.488h2.485v-2.488zM416.747 379.562h-2.485v2.488h2.485v-2.488zM416.747 383.729h-2.485v2.487h2.485v-2.487zM416.747 387.905h-2.485v2.488h2.485v-2.488zM416.747 404.61h-2.485v2.488h2.485v-2.488zM412.795 321.103h-2.486v2.488h2.486v-2.488zM412.795 325.279h-2.486v2.488h2.486v-2.488zM412.795 329.456h-2.486v2.488h2.486v-2.488zM412.795 333.632h-2.486v2.488h2.486v-2.488zM412.795 337.809h-2.486v2.487h2.486v-2.487zM412.795 341.975h-2.486v2.488h2.486v-2.488zM412.795 346.151h-2.486v2.488h2.486v-2.488zM412.795 350.328h-2.486v2.488h2.486v-2.488zM412.795 354.504h-2.486v2.488h2.486v-2.488zM412.795 358.68h-2.486v2.488h2.486v-2.488zM412.795 362.857h-2.486v2.488h2.486v-2.488zM412.795 367.033h-2.486v2.488h2.486v-2.488zM412.795 371.209h-2.486v2.488h2.486v-2.488zM412.795 375.386h-2.486v2.488h2.486v-2.488zM412.795 379.562h-2.486v2.488h2.486v-2.488zM412.795 383.729h-2.486v2.487h2.486v-2.487zM412.795 387.905h-2.486v2.488h2.486v-2.488zM412.795 392.081h-2.486v2.488h2.486v-2.488zM408.842 321.103h-2.485v2.488h2.485v-2.488zM408.842 325.279h-2.485v2.488h2.485v-2.488zM408.842 329.456h-2.485v2.488h2.485v-2.488zM408.842 333.632h-2.485v2.488h2.485v-2.488zM408.842 337.809h-2.485v2.487h2.485v-2.487zM408.842 341.975h-2.485v2.488h2.485v-2.488zM408.842 346.151h-2.485v2.488h2.485v-2.488zM408.842 350.328h-2.485v2.488h2.485v-2.488zM408.842 354.504h-2.485v2.488h2.485v-2.488zM408.842 358.68h-2.485v2.488h2.485v-2.488zM408.842 371.209h-2.485v2.488h2.485v-2.488zM408.842 375.386h-2.485v2.488h2.485v-2.488zM408.842 379.562h-2.485v2.488h2.485v-2.488zM408.842 383.729h-2.485v2.487h2.485v-2.487zM404.89 321.103h-2.485v2.488h2.485v-2.488zM404.89 325.279h-2.485v2.488h2.485v-2.488zM404.89 329.456h-2.485v2.488h2.485v-2.488zM404.89 333.632h-2.485v2.488h2.485v-2.488zM404.89 337.809h-2.485v2.487h2.485v-2.487zM404.89 341.975h-2.485v2.488h2.485v-2.488zM404.89 346.151h-2.485v2.488h2.485v-2.488zM404.89 350.328h-2.485v2.488h2.485v-2.488zM404.89 354.504h-2.485v2.488h2.485v-2.488zM404.89 358.68h-2.485v2.488h2.485v-2.488zM404.89 371.209h-2.485v2.488h2.485v-2.488zM404.89 375.386h-2.485v2.488h2.485v-2.488zM404.89 379.562h-2.485v2.488h2.485v-2.488zM360.396 310.263h-2.486v2.487h2.486v-2.487zM360.396 314.439h-2.486v2.488h2.486v-2.488zM360.396 318.615h-2.486v2.488h2.486v-2.488zM360.396 322.792h-2.486v2.488h2.486v-2.488zM360.396 326.968h-2.486v2.488h2.486v-2.488zM360.396 331.134h-2.486v2.488h2.486v-2.488zM360.396 335.311h-2.486v2.488h2.486v-2.488zM360.396 339.487h-2.486v2.488h2.486v-2.488zM360.396 352.016h-2.486v2.488h2.486v-2.488zM360.396 356.193h-2.486v2.487h2.486v-2.487zM356.443 310.263h-2.485v2.487h2.485v-2.487zM356.443 314.439h-2.485v2.488h2.485v-2.488zM356.443 318.615h-2.485v2.488h2.485v-2.488zM356.443 322.792h-2.485v2.488h2.485v-2.488zM356.443 326.968h-2.485v2.488h2.485v-2.488zM356.443 331.134h-2.485v2.488h2.485v-2.488zM356.443 335.311h-2.485v2.488h2.485v-2.488zM356.443 339.487h-2.485v2.488h2.485v-2.488zM356.443 356.193h-2.485v2.487h2.485v-2.487zM352.491 310.263h-2.485v2.487h2.485v-2.487zM352.491 314.439h-2.485v2.488h2.485v-2.488zM352.491 318.615h-2.485v2.488h2.485v-2.488zM352.491 322.792h-2.485v2.488h2.485v-2.488zM352.491 326.968h-2.485v2.488h2.485v-2.488zM352.491 331.134h-2.485v2.488h2.485v-2.488zM352.491 335.311h-2.485v2.488h2.485v-2.488zM352.491 339.487h-2.485v2.488h2.485v-2.488zM348.548 310.263h-2.485v2.487h2.485v-2.487zM348.548 314.439h-2.485v2.488h2.485v-2.488zM348.548 318.615h-2.485v2.488h2.485v-2.488zM348.548 322.792h-2.485v2.488h2.485v-2.488zM348.548 326.968h-2.485v2.488h2.485v-2.488zM348.548 331.134h-2.485v2.488h2.485v-2.488zM348.548 339.487h-2.485v2.488h2.485v-2.488zM348.548 343.664h-2.485v2.487h2.485v-2.487zM348.548 356.193h-2.485v2.487h2.485v-2.487zM348.548 360.369h-2.485v2.488h2.485v-2.488zM348.548 364.545h-2.485v2.488h2.485v-2.488zM348.548 368.722h-2.485v2.487h2.485v-2.487zM348.548 372.888h-2.485v2.488h2.485v-2.488zM348.548 377.064h-2.485v2.488h2.485v-2.488zM348.548 381.241h-2.485v2.488h2.485v-2.488zM344.596 310.263h-2.485v2.487h2.485v-2.487zM344.596 314.439h-2.485v2.488h2.485v-2.488zM344.596 318.615h-2.485v2.488h2.485v-2.488zM344.596 322.792h-2.485v2.488h2.485v-2.488zM344.596 326.968h-2.485v2.488h2.485v-2.488zM344.596 331.134h-2.485v2.488h2.485v-2.488zM344.596 343.664h-2.485v2.487h2.485v-2.487zM344.596 347.84h-2.485v2.488h2.485v-2.488zM344.596 352.016h-2.485v2.488h2.485v-2.488zM344.596 356.193h-2.485v2.487h2.485v-2.487zM344.596 360.369h-2.485v2.488h2.485v-2.488zM344.596 364.545h-2.485v2.488h2.485v-2.488zM344.596 368.722h-2.485v2.487h2.485v-2.487zM344.596 372.888h-2.485v2.488h2.485v-2.488zM344.596 377.064h-2.485v2.488h2.485v-2.488zM344.596 381.241h-2.485v2.488h2.485v-2.488zM344.596 385.417h-2.485v2.488h2.485v-2.488zM344.596 393.77h-2.485v2.488h2.485v-2.488zM340.644 310.263h-2.486v2.487h2.486v-2.487zM340.644 314.439h-2.486v2.488h2.486v-2.488zM340.644 318.615h-2.486v2.488h2.486v-2.488zM340.644 322.792h-2.486v2.488h2.486v-2.488zM340.644 326.968h-2.486v2.488h2.486v-2.488zM340.644 331.134h-2.486v2.488h2.486v-2.488zM340.644 343.664h-2.486v2.487h2.486v-2.487zM340.644 347.84h-2.486v2.488h2.486v-2.488zM340.644 352.016h-2.486v2.488h2.486v-2.488zM340.644 356.193h-2.486v2.487h2.486v-2.487zM340.644 368.722h-2.486v2.487h2.486v-2.487zM340.644 372.888h-2.486v2.488h2.486v-2.488zM340.644 377.064h-2.486v2.488h2.486v-2.488zM340.644 381.241h-2.486v2.488h2.486v-2.488zM340.644 385.417h-2.486v2.488h2.486v-2.488zM340.644 393.77h-2.486v2.488h2.486v-2.488zM340.644 397.946h-2.486v2.488h2.486v-2.488zM304.783 349.089h-2.485v2.488h2.485v-2.488zM304.783 353.265h-2.485v2.488h2.485v-2.488zM304.783 357.432h-2.485v2.487h2.485v-2.487zM304.783 361.608h-2.485v2.488h2.485v-2.488zM304.783 365.784h-2.485v2.488h2.485v-2.488zM304.783 369.961h-2.485v2.487h2.485v-2.487zM304.783 374.137h-2.485v2.488h2.485v-2.488zM304.783 386.666h-2.485v2.488h2.485v-2.488zM304.783 390.842h-2.485v2.488h2.485v-2.488zM304.783 395.019h-2.485v2.488h2.485v-2.488zM300.83 349.089h-2.485v2.488h2.485v-2.488zM300.83 353.265h-2.485v2.488h2.485v-2.488zM300.83 357.432h-2.485v2.487h2.485v-2.487zM300.83 361.608h-2.485v2.488h2.485v-2.488zM300.83 365.784h-2.485v2.488h2.485v-2.488zM300.83 369.961h-2.485v2.487h2.485v-2.487zM300.83 374.137h-2.485v2.488h2.485v-2.488zM296.888 349.089h-2.485v2.488h2.485v-2.488zM296.888 353.265h-2.485v2.488h2.485v-2.488zM296.888 357.432h-2.485v2.487h2.485v-2.487zM296.888 361.608h-2.485v2.488h2.485v-2.488zM296.888 365.784h-2.485v2.488h2.485v-2.488zM296.888 369.961h-2.485v2.487h2.485v-2.487zM296.888 374.137h-2.485v2.488h2.485v-2.488zM292.936 349.089h-2.486v2.488h2.486v-2.488zM292.936 353.265h-2.486v2.488h2.486v-2.488zM292.936 357.432h-2.486v2.487h2.486v-2.487zM292.936 361.608h-2.486v2.488h2.486v-2.488zM292.936 365.784h-2.486v2.488h2.486v-2.488zM292.936 369.961h-2.486v2.487h2.486v-2.487zM292.936 374.137h-2.486v2.488h2.486v-2.488zM292.936 378.313h-2.486v2.488h2.486v-2.488zM292.936 382.49h-2.486v2.487h2.486v-2.487zM292.936 386.666h-2.486v2.488h2.486v-2.488zM292.936 390.842h-2.486v2.488h2.486v-2.488zM288.983 349.089h-2.485v2.488h2.485v-2.488zM288.983 353.265h-2.485v2.488h2.485v-2.488zM288.983 357.432h-2.485v2.487h2.485v-2.487zM288.983 361.608h-2.485v2.488h2.485v-2.488zM288.983 365.784h-2.485v2.488h2.485v-2.488zM288.983 369.961h-2.485v2.487h2.485v-2.487zM288.983 374.137h-2.485v2.488h2.485v-2.488zM288.983 378.313h-2.485v2.488h2.485v-2.488zM288.983 382.49h-2.485v2.487h2.485v-2.487zM288.983 386.666h-2.485v2.488h2.485v-2.488zM288.983 390.842h-2.485v2.488h2.485v-2.488zM288.983 395.019h-2.485v2.488h2.485v-2.488zM288.983 407.538h-2.485v2.488h2.485v-2.488zM288.983 411.714h-2.485v2.488h2.485v-2.488zM285.031 349.089h-2.485v2.488h2.485v-2.488zM285.031 353.265h-2.485v2.488h2.485v-2.488zM285.031 357.432h-2.485v2.487h2.485v-2.487zM285.031 369.961h-2.485v2.487h2.485v-2.487zM285.031 374.137h-2.485v2.488h2.485v-2.488zM285.031 378.313h-2.485v2.488h2.485v-2.488zM285.031 382.49h-2.485v2.487h2.485v-2.487zM285.031 386.666h-2.485v2.488h2.485v-2.488zM285.031 390.842h-2.485v2.488h2.485v-2.488zM285.031 395.019h-2.485v2.488h2.485v-2.488zM285.031 407.538h-2.485v2.488h2.485v-2.488zM285.031 411.714h-2.485v2.488h2.485v-2.488zM285.031 415.891h-2.485v2.487h2.485v-2.487zM243.611 324.031h-2.486v2.487h2.486v-2.487zM243.611 328.207h-2.486v2.488h2.486v-2.488zM243.611 332.383h-2.486v2.488h2.486v-2.488zM243.611 336.56h-2.486v2.487h2.486v-2.487zM243.611 340.736h-2.486v2.488h2.486v-2.488zM243.611 344.912h-2.486v2.488h2.486v-2.488zM243.611 349.089h-2.486v2.488h2.486v-2.488zM243.611 353.265h-2.486v2.488h2.486v-2.488zM243.611 357.432h-2.486v2.487h2.486v-2.487zM243.611 361.608h-2.486v2.488h2.486v-2.488zM243.611 365.784h-2.486v2.488h2.486v-2.488zM243.611 369.961h-2.486v2.487h2.486v-2.487zM243.611 374.137h-2.486v2.488h2.486v-2.488zM243.611 378.313h-2.486v2.488h2.486v-2.488zM243.611 382.49h-2.486v2.487h2.486v-2.487zM243.611 386.666h-2.486v2.488h2.486v-2.488zM243.611 390.842h-2.486v2.488h2.486v-2.488zM243.611 395.019h-2.486v2.488h2.486v-2.488zM243.611 399.185h-2.486v2.488h2.486v-2.488zM243.611 403.362h-2.486v2.487h2.486v-2.487zM243.611 407.538h-2.486v2.488h2.486v-2.488zM243.611 411.714h-2.486v2.488h2.486v-2.488zM243.611 415.891h-2.486v2.487h2.486v-2.487zM239.658 324.031h-2.485v2.487h2.485v-2.487zM239.658 328.207h-2.485v2.488h2.485v-2.488zM239.658 332.383h-2.485v2.488h2.485v-2.488zM239.658 336.56h-2.485v2.487h2.485v-2.487zM239.658 340.736h-2.485v2.488h2.485v-2.488zM239.658 344.912h-2.485v2.488h2.485v-2.488zM239.658 349.089h-2.485v2.488h2.485v-2.488zM239.658 353.265h-2.485v2.488h2.485v-2.488zM239.658 357.432h-2.485v2.487h2.485v-2.487zM239.658 361.608h-2.485v2.488h2.485v-2.488zM239.658 365.784h-2.485v2.488h2.485v-2.488zM239.658 369.961h-2.485v2.487h2.485v-2.487zM239.658 374.137h-2.485v2.488h2.485v-2.488zM239.658 378.313h-2.485v2.488h2.485v-2.488zM239.658 382.49h-2.485v2.487h2.485v-2.487zM239.658 386.666h-2.485v2.488h2.485v-2.488zM239.658 390.842h-2.485v2.488h2.485v-2.488zM239.658 395.019h-2.485v2.488h2.485v-2.488zM239.658 399.185h-2.485v2.488h2.485v-2.488zM235.706 324.031h-2.485v2.487h2.485v-2.487zM235.706 328.207h-2.485v2.488h2.485v-2.488zM235.706 332.383h-2.485v2.488h2.485v-2.488zM235.706 336.56h-2.485v2.487h2.485v-2.487zM235.706 340.736h-2.485v2.488h2.485v-2.488zM235.706 344.912h-2.485v2.488h2.485v-2.488zM235.706 349.089h-2.485v2.488h2.485v-2.488zM235.706 353.265h-2.485v2.488h2.485v-2.488zM235.706 357.432h-2.485v2.487h2.485v-2.487zM235.706 361.608h-2.485v2.488h2.485v-2.488zM235.706 365.784h-2.485v2.488h2.485v-2.488zM235.706 369.961h-2.485v2.487h2.485v-2.487zM235.706 374.137h-2.485v2.488h2.485v-2.488zM235.706 378.313h-2.485v2.488h2.485v-2.488zM235.706 382.49h-2.485v2.487h2.485v-2.487zM235.706 386.666h-2.485v2.488h2.485v-2.488zM235.706 390.842h-2.485v2.488h2.485v-2.488zM235.706 395.019h-2.485v2.488h2.485v-2.488zM235.706 399.185h-2.485v2.488h2.485v-2.488zM231.753 324.031h-2.485v2.487h2.485v-2.487zM231.753 328.207h-2.485v2.488h2.485v-2.488zM231.753 332.383h-2.485v2.488h2.485v-2.488zM231.753 336.56h-2.485v2.487h2.485v-2.487zM231.753 340.736h-2.485v2.488h2.485v-2.488zM231.753 344.912h-2.485v2.488h2.485v-2.488zM231.753 349.089h-2.485v2.488h2.485v-2.488zM231.753 353.265h-2.485v2.488h2.485v-2.488zM231.753 357.432h-2.485v2.487h2.485v-2.487zM231.753 361.608h-2.485v2.488h2.485v-2.488zM231.753 365.784h-2.485v2.488h2.485v-2.488zM231.753 369.961h-2.485v2.487h2.485v-2.487zM231.753 374.137h-2.485v2.488h2.485v-2.488zM231.753 378.313h-2.485v2.488h2.485v-2.488zM231.753 382.49h-2.485v2.487h2.485v-2.487zM227.811 324.031h-2.485v2.487h2.485v-2.487zM227.811 328.207h-2.485v2.488h2.485v-2.488zM227.811 332.383h-2.485v2.488h2.485v-2.488zM227.811 336.56h-2.485v2.487h2.485v-2.487zM227.811 340.736h-2.485v2.488h2.485v-2.488zM227.811 344.912h-2.485v2.488h2.485v-2.488zM227.811 349.089h-2.485v2.488h2.485v-2.488zM227.811 353.265h-2.485v2.488h2.485v-2.488zM227.811 357.432h-2.485v2.487h2.485v-2.487zM227.811 361.608h-2.485v2.488h2.485v-2.488zM227.811 365.784h-2.485v2.488h2.485v-2.488zM227.811 369.961h-2.485v2.487h2.485v-2.487zM227.811 374.137h-2.485v2.488h2.485v-2.488zM223.859 324.031h-2.485v2.487h2.485v-2.487zM223.859 328.207h-2.485v2.488h2.485v-2.488zM223.859 332.383h-2.485v2.488h2.485v-2.488zM223.859 336.56h-2.485v2.487h2.485v-2.487zM223.859 340.736h-2.485v2.488h2.485v-2.488zM223.859 344.912h-2.485v2.488h2.485v-2.488zM223.859 349.089h-2.485v2.488h2.485v-2.488zM223.859 353.265h-2.485v2.488h2.485v-2.488zM223.859 357.432h-2.485v2.487h2.485v-2.487zM223.859 361.608h-2.485v2.488h2.485v-2.488zM223.859 365.784h-2.485v2.488h2.485v-2.488zM223.859 369.961h-2.485v2.487h2.485v-2.487zM454.504 322.792h-2.485v2.488h2.485v-2.488zM454.504 326.968h-2.485v2.488h2.485v-2.488zM454.504 331.134h-2.485v2.488h2.485v-2.488zM454.504 335.311h-2.485v2.488h2.485v-2.488zM454.504 339.487h-2.485v2.488h2.485v-2.488zM454.504 343.664h-2.485v2.487h2.485v-2.487zM454.504 347.84h-2.485v2.488h2.485v-2.488zM454.504 352.016h-2.485v2.488h2.485v-2.488zM454.504 356.193h-2.485v2.487h2.485v-2.487zM454.504 360.369h-2.485v2.488h2.485v-2.488zM454.504 364.545h-2.485v2.488h2.485v-2.488zM454.504 368.722h-2.485v2.487h2.485v-2.487zM454.504 372.888h-2.485v2.488h2.485v-2.488zM454.504 377.064h-2.485v2.488h2.485v-2.488zM454.504 381.241h-2.485v2.488h2.485v-2.488zM454.504 385.417h-2.485v2.488h2.485v-2.488zM454.504 389.594h-2.485v2.487h2.485v-2.487zM454.504 397.946h-2.485v2.488h2.485v-2.488zM454.504 402.123h-2.485v2.487h2.485v-2.487zM454.504 406.299h-2.485v2.488h2.485v-2.488zM454.504 410.465h-2.485v2.488h2.485v-2.488zM454.504 414.642h-2.485v2.488h2.485v-2.488zM450.552 322.792h-2.485v2.488h2.485v-2.488zM450.552 326.968h-2.485v2.488h2.485v-2.488zM450.552 331.134h-2.485v2.488h2.485v-2.488zM450.552 335.311h-2.485v2.488h2.485v-2.488zM450.552 339.487h-2.485v2.488h2.485v-2.488zM450.552 343.664h-2.485v2.487h2.485v-2.487zM450.552 347.84h-2.485v2.488h2.485v-2.488zM450.552 352.016h-2.485v2.488h2.485v-2.488zM450.552 356.193h-2.485v2.487h2.485v-2.487zM450.552 360.369h-2.485v2.488h2.485v-2.488zM450.552 364.545h-2.485v2.488h2.485v-2.488zM450.552 368.722h-2.485v2.487h2.485v-2.487zM450.552 372.888h-2.485v2.488h2.485v-2.488zM450.552 377.064h-2.485v2.488h2.485v-2.488zM450.552 381.241h-2.485v2.488h2.485v-2.488zM450.552 385.417h-2.485v2.488h2.485v-2.488zM450.552 410.465h-2.485v2.488h2.485v-2.488zM450.552 414.642h-2.485v2.488h2.485v-2.488zM446.599 322.792h-2.485v2.488h2.485v-2.488zM446.599 326.968h-2.485v2.488h2.485v-2.488zM446.599 331.134h-2.485v2.488h2.485v-2.488zM446.599 335.311h-2.485v2.488h2.485v-2.488zM446.599 339.487h-2.485v2.488h2.485v-2.488zM446.599 343.664h-2.485v2.487h2.485v-2.487zM446.599 347.84h-2.485v2.488h2.485v-2.488zM446.599 352.016h-2.485v2.488h2.485v-2.488zM446.599 356.193h-2.485v2.487h2.485v-2.487zM446.599 360.369h-2.485v2.488h2.485v-2.488zM446.599 364.545h-2.485v2.488h2.485v-2.488zM446.599 368.722h-2.485v2.487h2.485v-2.487zM446.599 372.888h-2.485v2.488h2.485v-2.488zM446.599 377.064h-2.485v2.488h2.485v-2.488zM446.599 381.241h-2.485v2.488h2.485v-2.488zM446.599 385.417h-2.485v2.488h2.485v-2.488zM446.599 393.77h-2.485v2.488h2.485v-2.488zM446.599 397.946h-2.485v2.488h2.485v-2.488zM446.599 402.123h-2.485v2.487h2.485v-2.487zM446.599 406.299h-2.485v2.488h2.485v-2.488zM446.599 414.642h-2.485v2.488h2.485v-2.488zM377.672 352.016h-2.485v2.488h2.485v-2.488zM377.672 356.193h-2.485v2.487h2.485v-2.487zM377.672 360.369h-2.485v2.488h2.485v-2.488zM377.672 364.545h-2.485v2.488h2.485v-2.488zM377.672 368.722h-2.485v2.487h2.485v-2.487zM377.672 372.888h-2.485v2.488h2.485v-2.488zM377.672 377.064h-2.485v2.488h2.485v-2.488zM377.672 381.241h-2.485v2.488h2.485v-2.488zM377.672 385.417h-2.485v2.488h2.485v-2.488zM377.672 389.594h-2.485v2.487h2.485v-2.487zM377.672 393.77h-2.485v2.488h2.485v-2.488zM377.672 397.946h-2.485v2.488h2.485v-2.488zM377.672 402.123h-2.485v2.487h2.485v-2.487zM377.672 410.465h-2.485v2.488h2.485v-2.488zM377.672 414.642h-2.485v2.488h2.485v-2.488zM377.672 418.818h-2.485v2.488h2.485v-2.488zM377.672 422.994h-2.485v2.488h2.485v-2.488zM377.672 431.347h-2.485v2.488h2.485v-2.488zM377.672 435.523h-2.485v2.488h2.485v-2.488zM377.672 439.7h-2.485v2.488h2.485V439.7zM373.72 352.016h-2.485v2.488h2.485v-2.488zM373.72 356.193h-2.485v2.487h2.485v-2.487zM373.72 360.369h-2.485v2.488h2.485v-2.488zM373.72 364.545h-2.485v2.488h2.485v-2.488zM373.72 368.722h-2.485v2.487h2.485v-2.487zM373.72 372.888h-2.485v2.488h2.485v-2.488zM373.72 377.064h-2.485v2.488h2.485v-2.488zM373.72 381.241h-2.485v2.488h2.485v-2.488zM373.72 385.417h-2.485v2.488h2.485v-2.488zM373.72 389.594h-2.485v2.487h2.485v-2.487zM373.72 393.77h-2.485v2.488h2.485v-2.488zM373.72 397.946h-2.485v2.488h2.485v-2.488zM373.72 402.123h-2.485v2.487h2.485v-2.487zM373.72 414.642h-2.485v2.488h2.485v-2.488zM373.72 418.818h-2.485v2.488h2.485v-2.488zM373.72 427.171h-2.485v2.488h2.485v-2.488zM373.72 431.347h-2.485v2.488h2.485v-2.488zM373.72 435.523h-2.485v2.488h2.485v-2.488zM373.72 439.7h-2.485v2.488h2.485V439.7zM369.768 352.016h-2.486v2.488h2.486v-2.488zM369.768 356.193h-2.486v2.487h2.486v-2.487zM369.768 360.369h-2.486v2.488h2.486v-2.488zM369.768 364.545h-2.486v2.488h2.486v-2.488zM369.768 368.722h-2.486v2.487h2.486v-2.487zM369.768 372.888h-2.486v2.488h2.486v-2.488zM369.768 377.064h-2.486v2.488h2.486v-2.488zM369.768 381.241h-2.486v2.488h2.486v-2.488zM369.768 385.417h-2.486v2.488h2.486v-2.488zM369.768 389.594h-2.486v2.487h2.486v-2.487zM369.768 393.77h-2.486v2.488h2.486v-2.488zM369.768 397.946h-2.486v2.488h2.486v-2.488zM369.768 402.123h-2.486v2.487h2.486v-2.487zM369.768 406.299h-2.486v2.488h2.486v-2.488zM369.768 414.642h-2.486v2.488h2.486v-2.488zM369.768 422.994h-2.486v2.488h2.486v-2.488zM369.768 427.171h-2.486v2.488h2.486v-2.488zM369.768 431.347h-2.486v2.488h2.486v-2.488zM369.768 435.523h-2.486v2.488h2.486v-2.488zM369.768 439.7h-2.486v2.488h2.486V439.7zM393.761 375.825h-2.485v2.488h2.485v-2.488zM393.761 380.002h-2.485v2.488h2.485v-2.488zM393.761 384.168h-2.485v2.488h2.485v-2.488zM393.761 388.345h-2.485v2.487h2.485v-2.487zM393.761 392.521h-2.485v2.488h2.485v-2.488zM393.761 396.697h-2.485v2.488h2.485v-2.488zM393.761 409.226h-2.485v2.488h2.485v-2.488zM393.761 413.403h-2.485v2.488h2.485v-2.488zM393.761 417.579h-2.485v2.488h2.485v-2.488zM393.761 421.755h-2.485v2.488h2.485v-2.488zM393.761 425.922h-2.485v2.488h2.485v-2.488zM393.761 430.098h-2.485v2.488h2.485v-2.488zM393.761 434.275h-2.485v2.487h2.485v-2.487zM389.819 375.825h-2.485v2.488h2.485v-2.488zM389.819 380.002h-2.485v2.488h2.485v-2.488zM389.819 384.168h-2.485v2.488h2.485v-2.488zM389.819 388.345h-2.485v2.487h2.485v-2.487zM389.819 392.521h-2.485v2.488h2.485v-2.488zM389.819 396.697h-2.485v2.488h2.485v-2.488zM389.819 409.226h-2.485v2.488h2.485v-2.488zM389.819 413.403h-2.485v2.488h2.485v-2.488zM389.819 417.579h-2.485v2.488h2.485v-2.488zM389.819 421.755h-2.485v2.488h2.485v-2.488zM389.819 425.922h-2.485v2.488h2.485v-2.488zM389.819 430.098h-2.485v2.488h2.485v-2.488zM389.819 438.451h-2.485v2.488h2.485v-2.488zM258.542 357.432h-2.485v2.487h2.485v-2.487zM258.542 361.608h-2.485v2.488h2.485v-2.488zM258.542 365.784h-2.485v2.488h2.485v-2.488zM258.542 369.961h-2.485v2.487h2.485v-2.487zM258.542 374.137h-2.485v2.488h2.485v-2.488zM258.542 378.313h-2.485v2.488h2.485v-2.488zM258.542 382.49h-2.485v2.487h2.485v-2.487zM258.542 386.666h-2.485v2.488h2.485v-2.488zM258.542 390.842h-2.485v2.488h2.485v-2.488zM258.542 395.019h-2.485v2.488h2.485v-2.488zM258.542 399.185h-2.485v2.488h2.485v-2.488zM258.542 407.538h-2.485v2.488h2.485v-2.488zM258.542 411.714h-2.485v2.488h2.485v-2.488zM258.542 415.891h-2.485v2.487h2.485v-2.487zM258.542 420.067h-2.485v2.488h2.485v-2.488zM258.542 424.243h-2.485v2.488h2.485v-2.488zM258.542 428.42h-2.485v2.488h2.485v-2.488zM258.542 432.596h-2.485v2.488h2.485v-2.488zM258.542 436.772h-2.485v2.488h2.485v-2.488zM254.589 357.432h-2.485v2.487h2.485v-2.487zM254.589 361.608h-2.485v2.488h2.485v-2.488zM254.589 365.784h-2.485v2.488h2.485v-2.488zM254.589 369.961h-2.485v2.487h2.485v-2.487zM254.589 374.137h-2.485v2.488h2.485v-2.488zM254.589 378.313h-2.485v2.488h2.485v-2.488zM254.589 382.49h-2.485v2.487h2.485v-2.487zM254.589 386.666h-2.485v2.488h2.485v-2.488zM254.589 390.842h-2.485v2.488h2.485v-2.488zM254.589 395.019h-2.485v2.488h2.485v-2.488zM254.589 399.185h-2.485v2.488h2.485v-2.488zM254.589 403.362h-2.485v2.487h2.485v-2.487zM254.589 407.538h-2.485v2.488h2.485v-2.488zM254.589 411.714h-2.485v2.488h2.485v-2.488zM254.589 415.891h-2.485v2.487h2.485v-2.487zM254.589 420.067h-2.485v2.488h2.485v-2.488zM254.589 424.243h-2.485v2.488h2.485v-2.488zM254.589 428.42h-2.485v2.488h2.485v-2.488zM254.589 432.596h-2.485v2.488h2.485v-2.488zM254.589 436.772h-2.485v2.488h2.485v-2.488zM278.004 373.697h-2.485v2.488h2.485v-2.488zM278.004 377.874h-2.485v2.488h2.485v-2.488zM278.004 382.05h-2.485v2.488h2.485v-2.488zM278.004 386.226h-2.485v2.488h2.485v-2.488zM278.004 390.403h-2.485v2.488h2.485v-2.488zM278.004 394.579h-2.485v2.488h2.485v-2.488zM278.004 398.745h-2.485v2.488h2.485v-2.488zM278.004 402.922h-2.485v2.488h2.485v-2.488zM278.004 407.098h-2.485v2.488h2.485v-2.488zM278.004 411.275h-2.485v2.487h2.485v-2.487zM274.052 373.697h-2.485v2.488h2.485v-2.488zM274.052 377.874h-2.485v2.488h2.485v-2.488zM274.052 382.05h-2.485v2.488h2.485v-2.488zM274.052 386.226h-2.485v2.488h2.485v-2.488zM274.052 390.403h-2.485v2.488h2.485v-2.488zM274.052 394.579h-2.485v2.488h2.485v-2.488zM274.052 398.745h-2.485v2.488h2.485v-2.488zM274.052 402.922h-2.485v2.488h2.485v-2.488zM274.052 407.098h-2.485v2.488h2.485v-2.488z" fill="#F0F0F0"/><path d="M297.567 215.245h-4.172v232.878h4.172V215.245zM376.115 215.245h-4.172v232.878h4.172V215.245zM454.664 215.245h-4.172v232.878h4.172V215.245z" fill="#E0E0E0"/><path d="M187.888 479.655h-34.523v-49.787a4.405 4.405 0 0 1 4.401-4.406h25.73a4.405 4.405 0 0 1 4.402 4.406v49.787h-.01z" fill="#F0F0F0"/><path d="M187.888 432.796h-34.523v3.886h34.523v-3.886z" fill="#E6E6E6"/><path d="M181.6 473.091h-8.603a2.365 2.365 0 0 0-2.366 2.368v4.196h13.335v-4.196a2.365 2.365 0 0 0-2.366-2.368z" fill="#E0E0E0"/><path d="M184.015 479.655h-9.571a1.539 1.539 0 0 1 0-3.077h9.571c.849 0 1.538.689 1.538 1.538a1.552 1.552 0 0 1-1.538 1.539z" fill="#E6E6E6"/><path d="M337.289 204.287c12.633-2.986 20.456-15.659 17.473-28.306-2.983-12.647-15.643-20.478-28.276-17.492-12.634 2.986-20.457 15.659-17.474 28.306 2.984 12.647 15.643 20.478 28.277 17.492z" fill="#E0E0E0"/><path d="M335.109 201.154c10.898-1.77 18.3-12.05 16.531-22.96-1.769-10.91-12.038-18.319-22.936-16.548-10.899 1.77-18.3 12.05-16.531 22.96 1.768 10.91 12.037 18.319 22.936 16.548z" fill="#F0F0F0"/><path d="M332.849 167.677v13.988l9.262-5.246" fill="#F0F0F0"/><path d="M332.849 167.677v13.988l9.262-5.246" stroke="#E0E0E0" stroke-width="2" stroke-miterlimit="10" stroke-linecap="round" stroke-linejoin="round"/><path d="M106.964 411.075c-1.797-2.958-4.751-.39-4.751-.39.419-5.675-4.79-9.552-4.79-9.552s6.058 0 6.906-5.785c.848-5.785-2.116-3.097-4.89-3.137-2.775-.04-5.68 8.083-2.017 12.639 3.663 4.566 2.675 12.359-5.769 19.853-2.066 1.828-3.463 4.266-4.411 6.894.639-6.884.998-16.586-1.028-23.06-3.433-11 3.114-13.958 5.01-19.463 1.907-5.505-5.01-10.151-5.01-10.151s6.497-2.958 3.323-6.345c-3.173-3.387-9.72-2.927-9.72 1.499s4.44 6.115 4.44 6.115 5.07 5.285 5.07 8.043c0 2.747-5.07 8.672-5.07 8.672s2.326-5.066-2.325-5.285c-4.65-.22-6.128 5.915-4.222 8.672 1.907 2.748 5.07.42 5.07.42s.37 5.925 1.458 9.521c.479 1.579.25 7.784-.15 14.238-.938-2.328-2.256-4.466-4.112-6.115-8.454-7.493-9.432-15.286-5.769-19.852 3.663-4.566.759-12.679-2.016-12.639-2.775.04-5.739-2.658-4.89 3.137.848 5.795 6.906 5.785 6.906 5.785s-5.22 3.887-4.79 9.552c0 0-2.955-2.578-4.752.389-3.203 5.286 4.222 8.563 5.48 5.965 0 0 15.76 11.17 11.957 27.246l.888 1.309a128.92 128.92 0 0 1-.19 2.078l1.238-.529 1.407 2.068c-.07 4.017.36 6.984.36 6.984l3.772-5.565c-3.802-16.076 11.957-27.246 11.957-27.246 1.208 2.597 8.644-.68 5.43-5.965z" fill="#E0E0E0"/><path opacity=".2" d="M106.964 411.075c-1.797-2.958-4.751-.39-4.751-.39.419-5.675-4.79-9.552-4.79-9.552s6.058 0 6.906-5.785c.848-5.785-2.116-3.097-4.89-3.137-2.775-.04-5.68 8.083-2.017 12.639 3.663 4.566 2.675 12.359-5.769 19.853-2.066 1.828-3.463 4.266-4.411 6.894.639-6.884.998-16.586-1.028-23.06-3.433-11 3.114-13.958 5.01-19.463 1.907-5.505-5.01-10.151-5.01-10.151s6.497-2.958 3.323-6.345c-3.173-3.387-9.72-2.927-9.72 1.499s4.44 6.115 4.44 6.115 5.07 5.285 5.07 8.043c0 2.747-5.07 8.672-5.07 8.672s2.326-5.066-2.325-5.285c-4.65-.22-6.128 5.915-4.222 8.672 1.907 2.748 5.07.42 5.07.42s.37 5.925 1.458 9.521c.479 1.579.25 7.784-.15 14.238-.938-2.328-2.256-4.466-4.112-6.115-8.454-7.493-9.432-15.286-5.769-19.852 3.663-4.566.759-12.679-2.016-12.639-2.775.04-5.739-2.658-4.89 3.137.848 5.795 6.906 5.785 6.906 5.785s-5.22 3.887-4.79 9.552c0 0-2.955-2.578-4.752.389-3.203 5.286 4.222 8.563 5.48 5.965 0 0 15.76 11.17 11.957 27.246l.888 1.309a128.92 128.92 0 0 1-.19 2.078l1.238-.529 1.407 2.068c-.07 4.017.36 6.984.36 6.984l3.772-5.565c-3.802-16.076 11.957-27.246 11.957-27.246 1.208 2.597 8.644-.68 5.43-5.965z" fill="#E0E0E0"/><path d="M103.89 479.655H67.78l-3.893-39.575h43.895l-3.892 39.575z" fill="#E6E6E6"/><path d="M109.709 435.713H61.961v8.733h47.748v-8.733z" fill="#F0F0F0"/><path d="M259.74 524.896c106.876 0 193.517-5.064 193.517-11.31 0-6.247-86.641-11.311-193.517-11.311-106.877 0-193.518 5.064-193.518 11.311 0 6.246 86.641 11.31 193.518 11.31z" fill="#F5F5F5"/><path d="M419.881 482.093c.15-1.019 3.643-25.148-3.354-33.481-1.547-1.848-3.503-2.807-5.808-2.867-14.123-.33-16.059 11.03-16.079 11.14l1.666.26c.06-.41 1.737-10.022 14.373-9.712 1.826.04 3.323.789 4.561 2.268 6.517 7.753 3.014 31.902 2.974 32.142l1.667.25z" fill="#FFBEDD"/><path d="m420.739 480.994 1.687-.05c-.01-.22-.559-22.231 10.27-26.777 10.62-4.456 15.391 4.706 15.59 5.096l1.507-.759c-.06-.11-5.659-10.971-17.745-5.895-11.907 4.985-11.339 27.426-11.309 28.385z" fill="#FFBEDD"/><path d="M420.689 482.722c0-.349.1-35.159 6.877-45.34 6.508-9.772 17.007-5.176 17.457-4.976l.698-1.538c-.12-.06-12.236-5.406-19.552 5.575-7.057 10.6-7.166 44.821-7.166 46.279h1.686z" fill="#FFBEDD"/><path d="M408.702 446.584s6.169 2.278 4.332 7.653c-1.836 5.376-21.339 14.218-21.339 14.218s-8.164-7.494-.668-19.683c7.505-12.199 17.506-6.035 17.675-2.188zM427.876 435.544s-4.382-.47-4.023-3.138c.35-2.667 17.018-9.541 26.859 1.569 0 0-6.298 10.83-15.401 10.97-9.112.14-7.435-9.401-7.435-9.401zM432.367 453.378s-3.024-2.438.239-3.637c3.264-1.189 19.263-.849 19.433 15.017 0 0-18.634 3.097-20.94-2.947-2.315-6.035 1.268-8.433 1.268-8.433z" fill="#53B175"/><path d="M405.379 514.415h28.924l3.124-31.702h-35.162l3.114 31.702z" fill="#85F0AC"/><path d="M400.724 486.219h38.247v-6.994h-38.247v6.994z" fill="#AB7A19"/><path d="m372.652 491.695-28.755-2.828v-40.455h-11.398v40.445l-28.874 2.838a5.601 5.601 0 0 0-5.05 5.575v4.326H377.702v-4.326a5.602 5.602 0 0 0-5.05-5.575z" fill="#263238"/><path opacity=".2" d="m372.652 491.695-28.755-2.828v-40.455h-11.398v40.445l-28.874 2.838a5.601 5.601 0 0 0-5.05 5.575v4.326H377.702v-4.326a5.602 5.602 0 0 0-5.05-5.575z" fill="#fff"/><path d="M301.609 514.425c4.118 0 7.456-3.342 7.456-7.464a7.46 7.46 0 0 0-7.456-7.463 7.46 7.46 0 0 0-7.456 7.463c0 4.122 3.338 7.464 7.456 7.464zM374.658 514.425c4.118 0 7.456-3.342 7.456-7.464a7.46 7.46 0 0 0-7.456-7.463c-4.117 0-7.455 3.341-7.455 7.463s3.338 7.464 7.455 7.464zM341.732 457.105h-7.077a4.126 4.126 0 0 1-4.122-4.127v-31.902h15.321v31.902a4.126 4.126 0 0 1-4.122 4.127z" fill="#263238"/><path opacity=".3" d="M341.732 457.105h-7.077a4.126 4.126 0 0 1-4.122-4.127v-31.902h15.321v31.902a4.126 4.126 0 0 1-4.122 4.127z" fill="#fff"/><path d="M365.436 357.831s2.176 53.953-12.835 63.235h17.127s13.274-18.384 9.521-63.235h-13.813z" fill="#263238"/><path opacity=".3" d="M365.436 357.831s2.176 53.953-12.835 63.235h17.127s13.274-18.384 9.521-63.235h-13.813z" fill="#fff"/><path d="M303.795 413.523h66.791a4.994 4.994 0 0 1 4.99 4.995v6.685h-76.772v-6.685a4.989 4.989 0 0 1 4.991-4.995z" fill="#263238"/><path d="M297.607 419.368h79.157c1.108 0 2.006.899 2.006 2.008v1.818a2.007 2.007 0 0 1-2.006 2.008h-79.157a2.007 2.007 0 0 1-2.006-2.008v-1.818c0-1.109.898-2.008 2.006-2.008z" fill="#263238"/><path opacity=".6" d="M297.607 419.368h79.157c1.108 0 2.006.899 2.006 2.008v1.818a2.007 2.007 0 0 1-2.006 2.008h-79.157a2.007 2.007 0 0 1-2.006-2.008v-1.818c0-1.109.898-2.008 2.006-2.008z" fill="#fff"/><path d="M383.461 368.792h-27.447c-8.034 0-14.552-6.525-14.552-14.568v-10.74c0-8.043 6.518-14.568 14.552-14.568h27.437c8.035 0 14.552 6.525 14.552 14.568v10.74c.01 8.043-6.507 14.568-14.542 14.568z" fill="#263238"/><path d="m272.764 284.825-5.479-14.458s2.345-2.178.739-4.386c-1.607-2.208-11.718-8.423-13.564-7.324-1.847 1.09-5.929 5.206-3.723 7.494 2.216 2.288 12.007 6.095 12.007 6.095l4.84 18.973 5.18-6.394z" fill="#FFCCAF"/><path d="M311.031 312.311s-24.922-5.126-27.627-6.355c-2.705-1.229-12.736-30.633-12.736-30.633l-7.685 3.597s6.188 29.514 12.516 36.538c6.328 7.014 33.326 12.959 33.326 12.959l2.206-16.106z" fill="#58C881"/><path d="m270.788 274.743 1.587 3.068-9.881 3.407.379-3.747 7.915-2.728z" fill="#AB7A19"/><path d="M346.163 291.948s1.467 13.818-3.653 17.215c-5.11 3.397-30.272-.579-33.126-6.144-2.855-5.555 7.885-20.652 7.885-20.652l28.894 9.581z" fill="#263238"/><path d="m244.369 473.77 6.558 1.589 3.323-9.072 3.014-8.253-7.475-3.187-2.875 10.011-2.545 8.912z" fill="#FFCCAF"/><path opacity=".2" d="m246.914 464.858 7.336 1.429 3.014-8.253-7.475-3.187-2.875 10.011z" fill="#000"/><path d="m247.573 460.072 9.102 3.387s24.284-60.777 29.274-60.987c4.99-.21 55.803 23.17 68.538 10.201 12.736-12.958-5.679-44.201-5.679-44.201s-30.631-4.376-32.937 2.548c-.449 1.338-.938 3.966-1.297 6.214a151.075 151.075 0 0 0-.589 3.897s-.01 0-.02-.01c-.948-.24-31.699-8.183-43.815.01-12.307 8.333-22.577 78.941-22.577 78.941z" fill="#85F0AC"/><path d="m299.932 499.698 6.538-1.679-1.258-9.392-1.168-8.612-8.084.729 2.096 10.041 1.876 8.913z" fill="#FFCCAF"/><path opacity=".2" d="m298.106 490.985 7.156-2.178-1.198-8.702-8.094.689 2.136 10.191z" fill="#000"/><path d="m260.438 460.082-13.254-4.506-.569 5.435 10.05 3.557 3.773-4.486z" fill="#AB7A19"/><path d="M332.489 415.791s-2.076.05-34.204-1.449c0 0 4.801 40.215 7.426 70.309l-9.611 1.638s-22.956-64.454-22.707-74.695c.25-10.241 11.977-13.238 11.977-13.238s22.896 13.238 47.119 17.435z" fill="#74DE9A"/><path d="m307.118 481.733-13.204 1.509 2.545 5.175 10.689-1.368-.03-5.316z" fill="#AB7A19"/><path opacity=".1" d="m313.985 381.131 17.916 3.737s-9.901-5.476-17.327-7.634a151.075 151.075 0 0 0-.589 3.897z" fill="#000"/><path d="m348.069 363.706.739 4.766-32.937 2.548-.868-5.646 33.066-1.668z" fill="#263238"/><path opacity=".2" d="m348.069 363.706.739 4.766-32.937 2.548-.868-5.646 33.066-1.668z" fill="#000"/><path d="m337.659 371.685 1.629-.168-.853-8.299-1.628.167.852 8.3z" fill="#AB7A19"/><path d="m323.08 370.846 7.211-.464-.351-5.474-7.211.464.351 5.474z" fill="#fff"/><path d="m317.491 372.579 1.628-.167-.852-8.299-1.628.168.852 8.298z" fill="#AB7A19"/><path opacity=".6" d="m337.659 371.685 1.629-.168-.853-8.299-1.628.167.852 8.3zM317.491 372.579l1.628-.167-.852-8.299-1.628.168.852 8.298z" fill="#fff"/><path d="M310.432 311.851s8.404 2.638 18.973 2.098c10.57-.539 23.206 4.596 23.206 4.596l-4.542 45.151-33.066 1.669c0 .01-11.109-37.698-4.571-53.514z" fill="#85F0AC"/><path d="M315.742 286.353s1.856-21.931 20.171-13.958c22.985 10.002 4.711 36.709-6.518 31.223-11.228-5.475-13.653-17.265-13.653-17.265z" fill="#263238"/><path opacity=".2" d="m320.872 315.178.529 12.389 4.102-5.824s-1.467 13.708-.609 21.161c0 0 .788-13.378 2.645-21.161l4.361 5.824 6.258-12.309c.01 0-10.12-3.647-17.286-.08z" fill="#000"/><path d="m326.551 317.486 9.472-2.677c-5.839-4.017-2.895-13.009-2.895-13.009l-9.382 3.297c.499 1.559.819 2.877 1.008 4.016.978 5.855-1.667 6.325-1.667 6.325l3.464 2.048z" fill="#FFCCAF"/><path opacity=".2" d="M323.746 305.097c.499 1.559.819 2.877 1.008 4.016 4.492-1.798 8.374-7.313 8.374-7.313l-9.382 3.297z" fill="#000"/><path d="M329.864 277.001c-8.304-1.838-11.967 2.019-14.472 10.451-3.124 10.541-2.435 18.674 8.454 18.684 14.801.02 19.812-26.077 6.018-29.135z" fill="#FFCCAF"/><path d="M320.872 288.182s-1.627 1.918-3.184 2.917c0 0 .459 1.289 1.986 1.429l1.198-4.346z" fill="#DE5753"/><path d="M326.102 288.621c-.17.68.059 1.319.519 1.429.449.11.958-.35 1.117-1.029.17-.679-.059-1.319-.519-1.429-.449-.11-.948.35-1.117 1.029z" fill="#263238"/><path d="m327.408 287.672-1.337-.939s.429 1.429 1.337.939zM317.698 286.403c-.17.68.06 1.319.519 1.429.449.11.958-.35 1.118-1.029.169-.68-.06-1.319-.519-1.429-.449-.11-.949.35-1.118 1.029z" fill="#263238"/><path d="m319.004 285.454-1.337-.939s.429 1.419 1.337.939z" fill="#263238"/><path d="M327.459 282.896s2.405.21 3.324 2.059M321.5 281.208s-1.347-.869-3.463-.05" stroke="#263238" stroke-width=".725" stroke-miterlimit="10" stroke-linecap="round" stroke-linejoin="round"/><path d="M335.843 293.027s-2.376-7.693-.619-12.838c0 0-14.971-10.381-19.482 6.164 0 0 1.676-15.206 16.029-12.379 14.332 2.828 9.671 23.729.918 28.325 0 .01 4.611-4.466 3.154-9.272z" fill="#263238"/><path d="M334.096 294.476c.349-1.329 2.236-3.287 4.661-2.468 2.515.85 2.565 6.415-4.112 6.265-.958-.01-1.277-1.019-.549-3.797z" fill="#E4897B"/><path d="M318.187 295.675c.289 1.099.429 3.088.429 3.088.18.02.369.04.549.05 2.475.209 3.703-.51 4.302-1.379.329-.47.459-.999.519-1.429.07-.5 0-.869 0-.869-1.378.669-3.713.659-4.951.589-.529-.01-.848-.05-.848-.05z" fill="#263238"/><path d="m319.035 295.735.15.909c2.335.19 4.012.02 4.801-.629.07-.5 0-.869 0-.869-1.388.669-3.713.649-4.951.589z" fill="#fff"/><path d="M319.165 298.823c2.475.209 3.703-.51 4.302-1.379-.849-.04-1.877.01-2.805.309-.709.23-1.178.64-1.497 1.07z" fill="#DE5753"/><path d="M329.894 277.661s.32 14.427 8.963 16.156c8.643 1.728-.808-18.534-.808-18.534s-12.876-8.413-21.449-2.488c-8.584 5.935-.868 13.558-.868 13.558s1.826-10.71 14.162-8.692z" fill="#263238"/><path d="M330.194 276.712s-3.084 9.122 3.004 13.908" stroke="#263238" stroke-width=".5" stroke-miterlimit="10" stroke-linecap="round" stroke-linejoin="round"/><path d="M341.382 296.784c-1.098 2.938-3.922 4.586-6.308 3.687-2.385-.899-3.423-3.996-2.325-6.934 1.098-2.937 3.922-4.586 6.308-3.687 2.385.9 3.433 4.007 2.325 6.934z" fill="#AB7A19"/><path opacity=".4" d="M341.382 296.784c-1.098 2.938-3.922 4.586-6.308 3.687-2.385-.899-3.423-3.996-2.325-6.934 1.098-2.937 3.922-4.586 6.308-3.687 2.385.9 3.433 4.007 2.325 6.934z" fill="#000"/><path d="M338.637 291.978s3.584-16.056-4.451-20.262c0 0 1.677.23 2.715.53 1.038.299 7.455 6.814 4.212 21.241l-2.476-1.509zM323.567 301.17l-.599-.089.159-.99c7.236 1.179 12.616-2.647 12.666-2.687l.589.809c-.22.16-5.45 3.927-12.815 2.957z" fill="#fff"/><path d="M341.053 296.385c-.729 1.938-2.595 3.027-4.172 2.438-1.577-.59-2.266-2.648-1.537-4.586.728-1.939 2.595-3.028 4.172-2.438 1.577.599 2.265 2.647 1.537 4.586zM322.678 301.49l-.798-.11a1.082 1.082 0 0 1-.938-1.219 1.081 1.081 0 0 1 1.217-.939l.799.11a1.088 1.088 0 0 1-.28 2.158z" fill="#AB7A19"/><path opacity=".4" d="m322.678 301.49-.798-.11a1.082 1.082 0 0 1-.938-1.219 1.081 1.081 0 0 1 1.217-.939l.799.11a1.088 1.088 0 0 1-.28 2.158z" fill="#000"/><path d="m333.477 311.372-5.928 5.825 2.365 7.143 8.254-9.082-4.691-3.886zM324.904 312.59l.958 4.487-3.074 6.344-1.916-8.243 4.032-2.588z" fill="#AB7A19"/><path d="m332.21 316.427 3.443-12.619s-1.667-3.147-1.307-3.797c.359-.659 2.156-9.132 3.433-10.051 1.278-.919 6.528.65 7.066 1.509.529.859-5.03 12.339-5.03 12.339l-2.026 13.668-5.579-1.049z" fill="#FFCCAF"/><path d="M352.611 318.545c9.471 9.712-9.522 31.713-20.401 30.773-10.879-.939.269-40.824.269-40.824l6.967 1.149s-2.445 17.265-1.677 18.614c.779 1.359 11.658-12.969 14.842-9.712z" fill="#58C881"/><path d="m331.9 307.215-1.028 3.297 9.712.86v-2.878l-8.684-1.279z" fill="#AB7A19"/><path opacity=".6" d="M317.189 342.315h-3.933a.784.784 0 0 1-.788-.79v-7.433c0-.44.349-.789.788-.789h3.933c.439 0 .788.349.788.789v7.433c0 .44-.349.79-.788.79z" fill="#fff"/><path opacity=".2" d="M317.269 333.892h-4.472v6.125h4.472v-6.125z" fill="#000"/><path d="M315.622 331.134h-.988v3.607h.988v-3.607z" fill="#263238"/><path d="M233.5 486.539a9.178 9.178 0 0 1 3.164-.809s3.793-2.238 7.545-10.911l4.222-.02a3.488 3.488 0 0 1 3.244 2.328 2 2 0 0 1 .12.59 22.349 22.349 0 0 1-.33 3.047c-.379 3.167-2.465 9.951-2.465 9.951l-.718-.179 1.297-6.315c.429-2.148-1.816-.07-2.864 2.088-1.048 2.158-2.645 4.336-7.316 3.267-5.41-1.278-7.606-2.058-5.899-3.037z" fill="#172176"/><path d="M244.978 472.541s-5.28 11.051-8.314 13.189c0 0 4.072 2.428 8.314-2.978 5.479-6.994 6.827-5.045 6.827-5.045s-.23-2.398-.659-3.567c-.828-2.258-6.168-1.599-6.168-1.599z" fill="#FFCCAF"/><path d="M291.608 512.866a9.246 9.246 0 0 1 2.885-1.539s3.153-3.067 4.75-12.389l4.102-1.029a3.473 3.473 0 0 1 3.703 1.489c.11.17.2.35.26.539.199.999.339 2.019.409 3.038.379 3.167-.04 10.251-.04 10.251l-.738-.01-.23-6.445c-.09-2.188-1.787.36-2.286 2.708-.499 2.348-1.547 4.846-6.327 4.916-5.6.07-7.915-.17-6.488-1.529z" fill="#172176"/><path d="M299.443 496.55s-2.505 11.99-4.95 14.777c0 0 4.531 1.399 7.365-4.865 3.673-8.103 5.44-6.515 5.44-6.515s-.789-2.268-1.487-3.307c-1.338-1.998-6.368-.09-6.368-.09z" fill="#FFCCAF"/><path d="M392.244 279.769h-34.853a5.063 5.063 0 0 1-5.06-5.065v-14.927a5.063 5.063 0 0 1 5.06-5.066h34.853a5.055 5.055 0 0 1 5.051 5.066v14.927a5.048 5.048 0 0 1-5.051 5.065z" fill="#53B175"/><path d="m364.388 276.912-10.49 14.287 16.938-13.328-6.448-.959z" fill="#53B175"/><path d="M364.787 267.24c0 .809-.659 1.479-1.477 1.479-.818 0-1.477-.66-1.477-1.479 0-.809.659-1.479 1.477-1.479.818 0 1.477.67 1.477 1.479zM372.462 267.24a1.48 1.48 0 0 1-1.477 1.479c-.808 0-1.477-.66-1.477-1.479 0-.809.659-1.479 1.477-1.479.819.01 1.477.67 1.477 1.479zM380.138 267.24c0 .809-.659 1.479-1.477 1.479-.819 0-1.478-.66-1.478-1.479 0-.809.659-1.479 1.478-1.479.818 0 1.477.67 1.477 1.479zM387.803 267.24c0 .809-.659 1.479-1.477 1.479-.819 0-1.477-.66-1.477-1.479a1.48 1.48 0 0 1 1.477-1.479c.818 0 1.477.67 1.477 1.479z" fill="#fff"/><path d="m252.184 260.066-24.852-13.398a1.382 1.382 0 0 1-.559-1.878l7.925-14.728a1.379 1.379 0 0 1 1.876-.559l24.852 13.398c.669.36.929 1.199.559 1.879l-7.925 14.727a1.379 1.379 0 0 1-1.876.559z" fill="#85F0AC"/><path opacity=".2" d="m234.049 231.281 7.775 14.538a3.172 3.172 0 0 0 3.104 1.658l16.179-1.598-16.478 2.428a3.37 3.37 0 0 1-3.553-1.919l-7.027-15.107z" fill="#000"/><path d="M215.175 228.574c.26-5.555 4.372-16.756 9.372-20.183 5.001-3.427 1.707 1.319 1.707 1.319s4.741-4.616 7.236-4.476c2.505.13 0 3.027 0 3.027s5.13-3.167 7.506-3.037c2.365.13 0 2.898 0 2.898s4.211-3.028 5.918-1.579c1.707 1.449-21.848 16.995-24.483 23.32-2.625 6.324-7.525 4.336-7.256-1.289z" fill="#53B175"/><path d="m235.406 227.754 3.144 2.019c.23.15.11.499-.159.479l-3.304-.259.28 2.537c.029.28-.31.43-.499.22l-1.907-2.158 2.445-2.838z" fill="#AB7A19"/><path opacity=".3" d="m235.406 227.754 3.144 2.019c.23.15.11.499-.159.479l-3.304-.259.28 2.537c.029.28-.31.43-.499.22l-1.907-2.158 2.445-2.838z" fill="#fff"/><path d="M191.251 215.245s4.342-3.027 10.929-1.059c0 0 1.897 8.693 7.067 11.59 2.844 1.589 9.801 1.459 15.31-.33 6.538-2.118 9.742-2.118 10.929.33 1.118 2.318-.13 5.006-5.13 6.195s-8.953 9.881-18.035 10.011c-9.083.13-13.863-8.982-11.578-16.995-.02 0-2.784-5.965-9.492-9.742z" fill="#FFBEDD"/><path d="M232.971 227.425c0 .25-.2.439-.439.439a.45.45 0 0 1-.449-.439c0-.25.199-.45.449-.45.249 0 .439.21.439.45z" fill="#263238"/><path d="M210.195 234.748c-5.36 1.469-17.277 1.01-22.077-2.697-4.801-3.707.728-2.038.728-2.038s-5.849-3.088-6.487-5.506c-.649-2.418 2.874-.939 2.874-.939s-4.591-3.906-5.2-6.204c-.599-2.298 2.755-.9 2.755-.9s-4.182-3.077-3.334-5.155c.849-2.078 22.896 15.556 29.713 16.116 6.837.559 6.458 5.845 1.028 7.323z" fill="#53B175"/><path d="M175.073 210.07a66.66 66.66 0 0 0-2.845-.939" stroke="#AB7A19" stroke-width=".75" stroke-linecap="round" stroke-linejoin="round"/><path d="M166.389 207.642a79.438 79.438 0 0 0-10.589-1.459c-9.701-.679-24.922-1.638-30.861 8.043-5.419 8.823 3.903 23.869 7.206 32.062 4.053 10.032 8.873 22.431 4.083 33.052-9.841 21.821-51.95 10.49-66.153-9.612" stroke="#AB7A19" stroke-width=".75" stroke-linecap="round" stroke-linejoin="round" stroke-dasharray="6.03 6.03"/><path d="M68.468 267.2c-.499-.879-.948-1.778-1.327-2.688" stroke="#AB7A19" stroke-width=".75" stroke-linecap="round" stroke-linejoin="round"/><path d="M189.685 346.531h-37.887v7.773h37.887v-7.773z" fill="#fff"/><path opacity=".1" d="M189.685 346.531h-37.887v7.773h37.887v-7.773z" fill="#000"/><path opacity=".1" d="M167.757 346.531h-15.959v7.773h15.959v-7.773z" fill="#000"/><path opacity=".1" d="M151.798 347.65h33.725l-33.725.959v-.959zM189.685 348.999l-29.234.729h29.234v-.729zM153.345 351.177l14.412-.59 21.189.59-21.189.33-14.412-.33zM151.798 352.826h24.971l-24.971.589v-.589zM189.635 353.415l-16.678.31h16.728l-.05-.31z" fill="#000"/><path d="M184.415 338.758h-37.887v7.773h37.887v-7.773z" fill="#fff"/><path opacity=".1" d="M184.415 338.758h-37.887v7.773h37.887v-7.773z" fill="#000"/><path opacity=".1" d="M162.487 338.758h-15.959v7.773h15.959v-7.773z" fill="#000"/><path opacity=".1" d="M146.528 339.877h33.725l-33.725.949v-.949zM184.415 341.226l-29.234.719h29.234v-.719zM148.075 343.394l14.412-.59 21.189.59-21.189.329-14.412-.329zM146.528 345.042H171.5l-24.972.6v-.6zM184.355 345.642l-16.668.31h16.728l-.06-.31z" fill="#000"/><path d="M188.736 330.975h-37.887v7.773h37.887v-7.773z" fill="#fff"/><path opacity=".1" d="M188.736 330.975h-37.887v7.773h37.887v-7.773z" fill="#000"/><path opacity=".1" d="M166.809 330.975h-15.96v7.773h15.96v-7.773z" fill="#000"/><path opacity=".1" d="M150.849 332.094h33.725l-33.725.959v-.959zM188.736 333.443l-29.233.729h29.233v-.729zM152.396 335.62l14.413-.589 21.189.589-21.189.33-14.413-.33zM150.849 337.269h24.972l-24.972.59v-.59zM188.686 337.859l-16.677.309h16.727l-.05-.309z" fill="#000"/><path d="m213.978 354.144.988-3.726h40.472l18.634 1.868.708 1.858h-60.802z" fill="#263238"/><path opacity=".4" d="M255.438 350.418v3.726h-41.46l.988-3.726h40.472z" fill="#000"/><path d="M247.304 332.583c.179 1.968-1.258 3.567-3.214 3.567h-62.001c-1.966 0-3.703-1.599-3.882-3.567l-3.683-39.735a3.4 3.4 0 0 1 .08-1.159c.349-1.399 1.577-2.408 3.134-2.408h62c1.966 0 3.703 1.598 3.883 3.567l3.683 39.735z" fill="#263238"/><path opacity=".4" d="M243.87 336.15h-61.781c-1.966 0-3.703-1.599-3.882-3.567l-3.683-39.735a3.4 3.4 0 0 1 .08-1.159h61.781c1.956 0 3.692 1.598 3.882 3.567l3.683 39.735c.04.41.01.799-.08 1.159z" fill="#fff"/><path d="M201.272 311.781h12.835l-3.423 36.758 20.281 3.048v2.557h-42.718v-2.557l8.753-3.048 4.272-36.758z" fill="#263238"/><path opacity=".1" d="m214.107 311.781-9.511 41.784-7.596-.23 4.272-41.554h12.835z" fill="#fff"/><path d="M214.048 514.415h-6.119l-10.988-153.117h8.114l8.993 153.117z" fill="#263238"/><path opacity=".4" d="M214.048 514.414h-6.119L197.48 368.911l-.539-7.364h8.114l.439 7.364 8.554 145.503z" fill="#fff"/><path opacity=".2" d="M205.494 368.541h-8.014l-.539-6.994h8.114l.439 6.994z" fill="#000"/><path d="M258.921 514.415h-6.118l-.998-153.117h8.114l-.998 153.117z" fill="#263238"/><path opacity=".5" d="m259.919 361.547-.159 24.709-.839 128.158h-6.118l-.838-128.158-.16-24.709h8.114z" fill="#fff"/><path opacity=".2" d="m259.919 361.547-.159 24.978h-7.795l-.16-24.978h8.114z" fill="#000"/><path d="M323.836 514.415h-6.118l-10.989-153.117h8.114l8.993 153.117z" fill="#263238"/><path opacity=".5" d="M323.836 514.414h-6.118l-10.45-145.503-.539-7.364h8.114l.44 7.364 8.553 145.503z" fill="#fff"/><path opacity=".2" d="M315.283 368.541h-8.015l-.539-6.994h8.114l.44 6.994z" fill="#000"/><path d="M144.092 514.415h-6.108l8.983-153.117h8.114l-10.989 153.117z" fill="#263238"/><path opacity=".5" d="m155.081 361.547-.539 7.364-10.45 145.503h-6.108l8.544-145.503.439-7.364h8.114z" fill="#fff"/><path opacity=".2" d="M146.967 361.548h8.114l-.539 6.994h-8.014l.439-6.994z" fill="#000"/><path d="M319.115 365.135h-176.42a2.16 2.16 0 0 1-2.156-2.158v-5.505h180.732v5.505a2.154 2.154 0 0 1-2.156 2.158z" fill="#53B175"/><path opacity=".2" d="M321.271 357.472H140.539v3.836h180.732v-3.836z" fill="#000"/><path d="M325.064 358.471H136.747a2.161 2.161 0 0 1-2.156-2.158c0-1.189.968-2.159 2.156-2.159h188.317c1.187 0 2.156.97 2.156 2.159a2.162 2.162 0 0 1-2.156 2.158z" fill="#53B175"/><path d="m280.51 347.49 2.315-3.477a2.496 2.496 0 0 1 2.076-1.109h2.934c.25 0 .489.04.719.11l10.47 3.177c.599.18 1.098.58 1.417 1.109l1.497 2.528-21.428-2.338z" fill="#AB7A19"/><path opacity=".2" d="m301.948 349.828-15.24-1.658-6.198-.68 2.315-3.477a2.496 2.496 0 0 1 2.076-1.109h2.934c.25 0 .489.04.729.11l.23.07 10.23 3.107c.599.18 1.108.57 1.427 1.109l1.497 2.528z" fill="#000"/><path opacity=".2" d="m301.948 349.828-15.24-1.658 2.086-5.086 10.23 3.107c.599.18 1.108.57 1.427 1.109l1.497 2.528z" fill="#000"/><path d="M309.194 353.815v.329h-32.357l1.197-4.686a4.027 4.027 0 0 1 3.883-2.987h14.352c.479 0 .948.08 1.397.25l1.797.669 7.126 2.658a4.021 4.021 0 0 1 2.605 3.767z" fill="#AB7A19"/><path opacity=".2" d="M309.194 353.815v.329H295.91l.709-5.065c.189-1.339 1.577-2.158 2.844-1.689l7.126 2.658a4.022 4.022 0 0 1 2.605 3.767z" fill="#000"/><path d="m297.976 350.707 4.222-12.699a.944.944 0 0 1 1.327-.539c.389.2.589.649.479 1.079l-3.563 13.558c.01-.01-2.365.949-2.465-1.399z" fill="#263238"/><path opacity=".2" d="M280.509 353.095h-1.876l.359-1.848h1.877l-.36 1.848zM283.304 353.025h-1.876l.359-1.848h1.876l-.359 1.848z" fill="#000"/></svg>