<svg width="815" height="545" fill="none" xmlns="http://www.w3.org/2000/svg"><g opacity=".05" fill-rule="evenodd" clip-rule="evenodd"><path d="M235.605 346.175c-8.149 8.672-.012 25.901-29.634 41.75-61.974 32.997-72.673 91.868-124.937 112.506-.613.145 71.403-7.742 114.743-57.824 18.076-21.017 29.273-50.452 34.463-67.022 1.753-5.885 6.8-31.144 5.365-29.41zM257.835 335.847c-10.419-5.748-25.08 6.475-47.884-18.435-47.435-51.898-107.039-47.348-140.113-93.059-.353-.492 25.393 67.13 84.744 96.625 24.887 12.362 55.837 15.933 73.39 16.797 5.961.317 31.729-.987 29.863-1.928zM257.01 273.535c-27.511-72.728-109.151-83.439-142.052-128.971-.211-.365 13.613 49.499 66.993 84.808 35.937 23.663 25.026 56.97 62.503 68.954 12.453 4.087 32.586-3.36 58.261-2.174 14.546.721 21.358-.985 24.856-1.195 12.366-.526-63.556-3.261-70.561-21.422zM408.849 351.819c-62.934 45.802-51.483 127.246-86.872 171.205-.156.09 44.163-26.472 64.044-87.164 13.388-41.072 48.406-39.015 50.144-78.443.727-13.088-11.882-30.589-17.542-55.582-3.025-14.403-6.626-20.399-7.748-23.788-3.821-11.924 13.534 62.143-2.026 73.772zM393.444 284.143c-7.833-12.601-25.956-7.219-38.032-49.113-25.65-88.073-83.335-117.695-97.408-190.177-.145-.612-1.067 92.917 43.745 161.853 18.785 29.04 46.744 51.183 62.75 62.268 5.558 3.96 30.331 17.571 28.945 15.169zM359.782 286.245c-8.149 8.673-.012 25.901-29.633 41.751-61.974 32.996-148.643 160.787-113.612 204.463.511.401 5.886-78.784 103.387-149.834 22.425-16.497 29.394-50.243 34.463-67.023 1.627-5.742 6.883-31.121 5.395-29.357zM189.331 368.506c-11.649-1.488-22.042 5.347-52.218-9.181-63.66-30.209-88.943 23.299-136.587-6.899-.39-.193 21.665 36.079 87.54 41.064 27.899 2.269 57.995-6.128 74.389-11.973 5.637-1.932 29.127-12.849 26.876-13.011zM521.797 278.951c-13.461-12.345-30.647-3.049-61.266-46.557-64.352-91.206-80.11-31.571-125.123-194.293-.144-.613-20.888 106.449 56.126 173.29 32.263 28.15 71.38 47.192 93.195 56.524 7.597 3.271 39.614 13.395 37.068 11.036zM581.342 298.172c-6.836-17.145-26.28-16.221-35.12-68.545-18.256-110.231-58.41-63.312-28.394-229.187.138-.845-64.771 86.749-24.621 180.163 16.955 39.494 43.905 73.635 59.395 91.422 5.449 6.181 29.988 29.394 28.74 26.147zM542.712 290.821c-6.019 13.568-25.919 14.547-32.376 55.446-13.887 85.423-69.656 130.011-74.01 198.306-.012.703-14.488-81.64 22.311-156.554 15.315-31.465 41.27-59.815 56.195-74.836 5.316-5.019 29.08-24.865 27.88-22.362zM608 311.669c3.924-13.82-2.635-24.095 22.216-61.831 52.251-78.894-12.557-96.259 35.969-157.131.558-.6-51.202 32.485-71.005 108.864-8.246 32.256-3.355 64.723.828 82.216 1.561 6.2 11.039 30.451 11.992 27.882zM638.803 333.074c11.145-4.207 17.319-14.733 50.776-15.741 70.501-2.071 68.413-61.148 124.777-56.239.455-.055-35.683-22.139-96.8 3.541-25.637 10.695-48.67 31.928-60.69 44.506-4.302 4.364-20.115 24.839-18.063 23.933zM638.699 496.019c2.124-8.257 9.182-13.515 7.236-37.381-3.836-50.41 38.366-53.753 30.503-93.415.036-.299 18.634 23.837 5.161 69.344-5.762 19.197-19.155 37.232-27.286 46.66-2.796 3.355-16.011 16.275-15.614 14.792z" fill="#3AC24A"/><path d="M770.257 491.553c-36.422-15.099-88.396-287.056-429.919-204.384-67.88 16.498-126.762 95.601-196.809 82.304 2.636 14.21 40.707 6.847 86.1-15.323 33.469-16.539 68.809-44.669 109.023-59.534 46.425-17.127 96.787-13.209 126.602-14.135 29.958-.798 58.823 4.95 83.23 12.02 46.12 13.328 52.583 15.722 107.453 59.638 45.97 36.943 105.599 150.713 105.599 150.713 10.264-15.74 11.86-9.84 8.721-11.299z" fill="#14771E"/></g></svg>