<svg width="50" height="50" fill="none" xmlns="http://www.w3.org/2000/svg"><g filter="url(#a)"><rect x="10" y="6" width="30" height="30" rx="15" fill="#fff"/></g><path d="m25.79 27.904-.001.001a1.163 1.163 0 0 1-1.567-.006l-.002-.002-.092-.083c-2.199-1.99-3.973-3.598-5.19-5.108-1.211-1.5-1.82-2.84-1.772-4.288.045-1.263.693-2.472 1.732-3.18 1.958-1.334 4.395-.724 5.722.829l.38.445.38-.445c1.328-1.554 3.764-2.17 5.72-.83l.002.002c1.039.707 1.687 1.916 1.732 3.18.052 1.446-.556 2.787-1.768 4.29-1.215 1.506-2.983 3.113-5.171 5.101l-.021.019-.002.002-.081.073z" stroke="#F3603F"/><defs><filter id="a" x="0" y="0" width="50" height="50" filterUnits="userSpaceOnUse" color-interpolation-filters="sRGB"><feFlood flood-opacity="0" result="BackgroundImageFix"/><feColorMatrix in="SourceAlpha" values="0 0 0 0 0 0 0 0 0 0 0 0 0 0 0 0 0 0 127 0" result="hardAlpha"/><feOffset dy="4"/><feGaussianBlur stdDeviation="5"/><feComposite in2="hardAlpha" operator="out"/><feColorMatrix values="0 0 0 0 0 0 0 0 0 0 0 0 0 0 0 0 0 0 0.1 0"/><feBlend in2="BackgroundImageFix" result="effect1_dropShadow_1_1575"/><feBlend in="SourceGraphic" in2="effect1_dropShadow_1_1575" result="shape"/></filter></defs></svg>