<svg width="14" height="13" fill="none" xmlns="http://www.w3.org/2000/svg"><path d="M12.52 7.472a.667.667 0 0 0-.834.433 4.76 4.76 0 0 1-4.58 3.28A4.734 4.734 0 0 1 2.32 6.52a4.733 4.733 0 0 1 4.786-4.667 4.84 4.84 0 0 1 3.1 1.113l-1.446-.24a.667.667 0 0 0-.758.814.667.667 0 0 0 .544.506l2.827.467h.113a.667.667 0 0 0 .227-.04.22.22 0 0 0 .067-.04.52.52 0 0 0 .133-.073l.06-.074c0-.033.06-.06.087-.1.026-.04 0-.066.033-.093a.904.904 0 0 0 .047-.12l.5-2.667A.68.68 0 0 0 11.59.618a.679.679 0 0 0-.285.434l-.18.967a6.14 6.14 0 0 0-4.02-1.5 6.067 6.067 0 0 0-6.12 6 6.067 6.067 0 0 0 6.12 6 6.08 6.08 0 0 0 5.88-4.214.666.666 0 0 0-.466-.833z" fill="#B0B7C3"/></svg>