    <svg width="10" height="10" viewBox="0 0 10 10" fill="none" xmlns="http://www.w3.org/2000/svg">
      <path fill-rule="evenodd" clip-rule="evenodd" d="M9.47402 8.51987C9.48058 8.34271 9.41494 8.17236 9.29678 8.04289L6.6645 5.30366L6.04746 4.66995L9.29678 1.29701C9.36242 1.22887 9.41494 1.15392 9.44776 1.07215C9.48058 0.990381 9.50027 0.901798 9.50027 0.813216C9.50027 0.71782 9.48715 0.629238 9.44776 0.547469C9.41494 0.465701 9.36899 0.383933 9.30991 0.322607C9.24427 0.26128 9.17206 0.206768 9.09329 0.172698C9.01452 0.138628 8.92262 0.125 8.83728 0.125C8.75195 0.125 8.66661 0.145442 8.58127 0.179512C8.5025 0.213582 8.4303 0.268094 8.37122 0.329421L5.00995 3.81857L1.62906 0.309044C1.50434 0.186392 1.34023 0.125065 1.16956 0.125065C0.998886 0.125065 0.834779 0.20002 0.716622 0.322672C0.591901 0.452138 0.526258 0.615675 0.526258 0.79284C0.519693 0.970004 0.585336 1.14035 0.703493 1.26982L3.33577 4.00906L3.95281 4.64276L0.703493 8.0157C0.63785 8.08384 0.585336 8.1588 0.552514 8.24056C0.519693 8.32233 0.5 8.41091 0.5 8.4995C0.5 8.59489 0.513128 8.68348 0.552514 8.76524C0.585336 8.84701 0.631286 8.92878 0.690364 8.99011C0.756007 9.05143 0.828214 9.10594 0.906985 9.14001C0.985757 9.17409 1.07766 9.18771 1.16299 9.18771C1.24833 9.18771 1.33366 9.16727 1.419 9.1332C1.49777 9.09913 1.56998 9.04462 1.62906 8.98329L4.99032 5.49415L8.37122 9.00367C8.49594 9.12632 8.66005 9.18765 8.83072 9.18765C9.00139 9.18765 9.1655 9.11269 9.28365 8.99004C9.40837 8.86057 9.47402 8.69704 9.47402 8.51987Z" fill="#181725" />
    </svg>